<svg width="362" height="277" viewBox="0 0 362 277" fill="none" xmlns="http://www.w3.org/2000/svg">
<path d="M94.0281 20.6281L65.5479 29.2811L74.2009 57.7613L102.681 49.1083L94.0281 20.6281Z" fill="#D5D4D4"/>
<path d="M91.3732 19.491L62.8929 28.144L71.546 56.6243L100.026 47.9713L91.3732 19.491Z" fill="#E5E24D"/>
<path d="M83.092 17.2907L54.8469 7.89954L45.4557 36.1446L73.7008 45.5358L83.092 17.2907Z" fill="#D5D4D4"/>
<path d="M81.9273 14.7267L53.6823 5.33545L44.291 33.5805L72.5361 42.9717L81.9273 14.7267Z" fill="#EFDF59"/>
<path d="M310.768 89.979C309.958 90.5302 308.823 91.3084 307.526 92.1839L288.654 105.154L264.984 177.526L331.715 199.348L362 106.71L310.768 89.979Z" fill="#D5D4D4"/>
<path d="M308.401 86.4126C303.927 89.3957 290.568 99.0259 286.288 101.62L262.617 173.992L329.348 195.814L359.633 103.176L308.401 86.4126Z" fill="white"/>
<path d="M308.402 86.4126L286.288 101.62L307.234 108.494L308.402 86.4126Z" fill="#EDEDED"/>
<path d="M337.828 129.055L294.372 114.85L293.042 118.918L336.498 133.123L337.828 129.055Z" fill="#BABABA"/>
<path d="M328.464 157.722L285.007 143.517L283.678 147.585L327.134 161.79L328.464 157.722Z" fill="#BABABA"/>
<path d="M325.25 167.509L281.794 153.304L280.464 157.372L323.92 171.577L325.25 167.509Z" fill="#BABABA"/>
<path d="M335.495 139.007L292.038 124.802L290.709 128.871L334.165 143.076L335.495 139.007Z" fill="#BABABA"/>
<path d="M332.323 148.667L288.867 134.462L287.537 138.53L330.993 152.735L332.323 148.667Z" fill="#BABABA"/>
<path d="M222.992 32.6855L154.017 12.0839L126.326 104.796L195.3 125.397L222.992 32.6855Z" fill="#D5D4D4"/>
<path d="M220.164 30.221L151.19 9.61938L123.498 102.331L192.473 122.933L220.164 30.221Z" fill="white"/>
<path d="M197.185 80.1133L143.528 64.0867L142.034 69.0889L195.691 85.1155L197.185 80.1133Z" fill="#BABABA"/>
<path d="M194.236 89.969L140.578 73.9424L139.084 78.9446L192.741 94.9712L194.236 89.969Z" fill="#BABABA"/>
<path d="M191.285 99.8246L137.628 83.798L136.134 88.8002L189.791 104.827L191.285 99.8246Z" fill="#BABABA"/>
<path d="M178.637 47.9242L177.178 31.6469C168.845 32.3926 162.295 39.3964 162.295 47.9242C162.295 56.9707 169.623 64.2664 178.637 64.2664C187.003 64.2664 193.909 57.9759 194.882 49.8372L178.637 47.9242Z" fill="#FCCA18"/>
<path d="M192.191 38.7155C189.24 34.403 184.279 31.5496 178.669 31.5496C178.183 31.5496 177.697 31.582 177.21 31.6144L178.669 47.8917L192.191 38.7155Z" fill="#229DA9"/>
<path d="M192.191 38.7156L178.67 47.8918L194.915 49.8373C194.98 49.1888 195.045 48.5403 195.045 47.8918C195.012 44.5196 193.975 41.342 192.191 38.7156Z" fill="#F8846D"/>
<path d="M88.4308 198.862C94.5732 198.862 99.5526 193.883 99.5526 187.74C99.5526 181.598 94.5732 176.619 88.4308 176.619C82.2885 176.619 77.3091 181.598 77.3091 187.74C77.3091 193.883 82.2885 198.862 88.4308 198.862Z" fill="#D5D4D4"/>
<path d="M300.004 103.76C306.146 103.76 311.126 98.7805 311.126 92.6381C311.126 86.4957 306.146 81.5164 300.004 81.5164C293.861 81.5164 288.882 86.4957 288.882 92.6381C288.882 98.7805 293.861 103.76 300.004 103.76Z" fill="#D5D4D4"/>
<path d="M35.6103 87.7419C41.7527 87.7419 46.732 82.7626 46.732 76.6202C46.732 70.4778 41.7527 65.4984 35.6103 65.4984C29.4679 65.4984 24.4885 70.4778 24.4885 76.6202C24.4885 82.7626 29.4679 87.7419 35.6103 87.7419Z" fill="#D5D4D4"/>
<path d="M310.347 163.487L292.092 118.286C290.211 113.617 284.861 111.347 280.192 113.228L241.898 128.695C237.229 130.575 234.959 135.926 236.84 140.595L255.095 185.795C256.976 190.464 262.326 192.734 266.995 190.853L305.289 175.387C309.991 173.506 312.26 168.156 310.347 163.487ZM241.055 138.909C240.115 136.542 241.25 133.85 243.617 132.878L281.91 117.411C284.278 116.471 286.969 117.605 287.942 119.973L289.433 123.701L280.646 127.236L279.9 125.42C279.706 124.901 279.122 124.674 278.603 124.869L277.436 125.323C276.917 125.517 276.69 126.101 276.885 126.62L277.63 128.435L276.366 128.954L275.62 127.138C275.426 126.62 274.842 126.393 274.323 126.587L273.156 127.041C272.637 127.236 272.41 127.819 272.605 128.338L273.35 130.154L272.086 130.673L271.34 128.857C271.145 128.338 270.562 128.111 270.043 128.306L268.876 128.76C268.357 128.954 268.13 129.538 268.324 130.057L269.07 131.872L267.806 132.391L267.06 130.575C266.865 130.057 266.282 129.83 265.763 130.024L264.596 130.478C264.077 130.673 263.85 131.256 264.044 131.775L264.79 133.591L263.526 134.11L262.78 132.294C262.585 131.775 262.002 131.548 261.483 131.743L260.315 132.197C259.797 132.391 259.57 132.975 259.764 133.494L260.51 135.31L242.514 142.573L241.055 138.909ZM243.098 143.935L261.094 136.671L262.034 138.974C262.229 139.492 262.812 139.719 263.331 139.525L264.498 139.071C265.017 138.876 265.244 138.293 265.05 137.774L264.109 135.472L265.374 134.953L266.314 137.255C266.509 137.774 267.092 138.001 267.611 137.806L268.778 137.352C269.297 137.158 269.524 136.574 269.33 136.055L268.389 133.753L269.654 133.234L270.594 135.536C270.789 136.055 271.372 136.282 271.891 136.088L273.058 135.634C273.577 135.439 273.804 134.856 273.61 134.337L272.669 132.035L273.934 131.516L274.874 133.818C275.069 134.337 275.652 134.564 276.171 134.369L277.339 133.915C277.857 133.721 278.084 133.137 277.89 132.618L276.949 130.316L278.214 129.797L279.154 132.099C279.349 132.618 279.933 132.845 280.451 132.651L281.619 132.197C282.137 132.002 282.364 131.419 282.17 130.9L281.23 128.598L290.017 125.063L293.259 133.105L276.528 139.849L275.944 138.39C275.75 137.871 275.166 137.644 274.647 137.839L273.48 138.293C272.961 138.487 272.734 139.071 272.929 139.59L273.512 141.049L271.924 141.697L271.34 140.238C271.145 139.719 270.562 139.492 270.043 139.687L268.876 140.141C268.357 140.335 268.13 140.919 268.324 141.438L268.908 142.897L267.319 143.545L266.736 142.086C266.541 141.568 265.957 141.341 265.439 141.535L264.271 141.989C263.753 142.184 263.526 142.767 263.72 143.286L264.304 144.745L262.715 145.394L262.131 143.935C261.937 143.416 261.353 143.189 260.834 143.383L259.667 143.837C259.148 144.032 258.921 144.615 259.116 145.134L259.699 146.593L246.34 151.976L243.098 143.935ZM246.859 153.273L260.251 147.858L261.321 150.517C261.515 151.036 262.099 151.263 262.618 151.068L263.785 150.614C264.304 150.42 264.531 149.836 264.336 149.317L263.266 146.658L264.855 146.01L265.925 148.669C266.12 149.187 266.703 149.414 267.222 149.22L268.389 148.766C268.908 148.571 269.135 147.988 268.941 147.469L267.871 144.81L269.459 144.162L270.529 146.82C270.724 147.339 271.308 147.566 271.826 147.372L272.994 146.918C273.512 146.723 273.739 146.139 273.545 145.621L272.475 142.962L274.064 142.313L275.134 144.972C275.328 145.491 275.912 145.718 276.431 145.523L277.598 145.069C278.117 144.875 278.344 144.291 278.149 143.772L277.079 141.114L293.81 134.369L297.053 142.411L285.283 147.145L284.602 145.459C284.407 144.94 283.824 144.713 283.305 144.907L282.137 145.361C281.619 145.556 281.392 146.139 281.586 146.658L282.267 148.344L279.706 149.382L279.025 147.696C278.83 147.177 278.246 146.95 277.728 147.145L276.56 147.599C276.042 147.793 275.815 148.377 276.009 148.896L276.69 150.582L274.129 151.619L273.448 149.933C273.253 149.414 272.669 149.187 272.151 149.382L270.983 149.836C270.464 150.03 270.238 150.614 270.432 151.133L271.113 152.819L268.551 153.857L267.871 152.17C267.676 151.652 267.092 151.425 266.574 151.619L265.406 152.073C264.887 152.268 264.66 152.851 264.855 153.37L265.536 155.056L262.974 156.094L262.293 154.408C262.099 153.889 261.515 153.662 260.996 153.857L259.829 154.311C259.31 154.505 259.083 155.089 259.278 155.608L259.959 157.294L250.037 161.314L246.859 153.273ZM250.62 162.611L260.542 158.591L261.515 161.023C261.71 161.541 262.293 161.768 262.812 161.574L263.98 161.12C264.498 160.925 264.725 160.342 264.531 159.823L263.558 157.391L266.12 156.353L267.092 158.785C267.287 159.304 267.87 159.531 268.389 159.336L269.557 158.882C270.075 158.688 270.302 158.104 270.108 157.585L269.135 155.154L271.697 154.116L272.669 156.548C272.864 157.067 273.448 157.294 273.966 157.099L275.134 156.645C275.652 156.451 275.879 155.867 275.685 155.348L274.712 152.916L277.274 151.879L278.246 154.311C278.441 154.829 279.025 155.056 279.543 154.862L280.711 154.408C281.23 154.213 281.457 153.63 281.262 153.111L280.289 150.679L282.851 149.641L283.824 152.073C284.018 152.592 284.602 152.819 285.121 152.624L286.288 152.17C286.807 151.976 287.034 151.392 286.839 150.873L285.866 148.442L297.637 143.708L300.879 151.749L296.145 153.662L295.464 151.976C295.27 151.457 294.686 151.23 294.167 151.425L293 151.879C292.481 152.073 292.254 152.657 292.449 153.176L293.13 154.862L290.309 155.997L289.628 154.311C289.433 153.792 288.849 153.565 288.331 153.759L287.163 154.213C286.645 154.408 286.418 154.991 286.612 155.51L287.293 157.196L284.472 158.331L283.791 156.645C283.597 156.126 283.013 155.899 282.494 156.094L281.327 156.548C280.808 156.742 280.581 157.326 280.776 157.845L281.457 159.531L278.636 160.666L277.955 158.98C277.76 158.461 277.176 158.234 276.658 158.429L275.49 158.882C274.972 159.077 274.745 159.661 274.939 160.179L275.62 161.866L272.799 163L272.118 161.314C271.924 160.796 271.34 160.569 270.821 160.763L269.654 161.217C269.135 161.412 268.908 161.995 269.103 162.514L269.784 164.2L266.963 165.335L266.282 163.649C266.087 163.13 265.503 162.903 264.985 163.098L263.817 163.552C263.299 163.746 263.072 164.33 263.266 164.849L263.947 166.535L253.863 170.62L250.62 162.611ZM254.414 171.982L264.498 167.897L265.471 170.328C265.666 170.847 266.249 171.074 266.768 170.88L267.935 170.426C268.454 170.231 268.681 169.648 268.487 169.129L267.514 166.697L270.335 165.562L271.308 167.994C271.502 168.513 272.086 168.74 272.605 168.545L273.772 168.091C274.291 167.897 274.518 167.313 274.323 166.794L273.35 164.362L276.171 163.227L277.144 165.659C277.339 166.178 277.922 166.405 278.441 166.211L279.608 165.757C280.127 165.562 280.354 164.978 280.16 164.46L279.187 162.028L282.008 160.893L282.981 163.325C283.175 163.843 283.759 164.07 284.278 163.876L285.445 163.422C285.964 163.227 286.191 162.644 285.996 162.125L285.023 159.693L287.844 158.558L288.817 160.99C289.012 161.509 289.595 161.736 290.114 161.541L291.281 161.087C291.8 160.893 292.027 160.309 291.833 159.79L290.86 157.358L293.681 156.224L294.653 158.655C294.848 159.174 295.432 159.401 295.95 159.207L297.118 158.753C297.637 158.558 297.864 157.975 297.669 157.456L296.696 155.024L301.43 153.111L304.673 161.152L291.411 166.502L290.73 164.849C290.536 164.33 289.952 164.103 289.433 164.297L288.266 164.751C287.747 164.946 287.52 165.53 287.715 166.048L288.395 167.702L285.51 168.869L284.829 167.216C284.634 166.697 284.051 166.47 283.532 166.664L282.364 167.118C281.846 167.313 281.619 167.897 281.813 168.415L282.494 170.069L279.608 171.236L278.927 169.583C278.733 169.064 278.149 168.837 277.63 169.031L276.463 169.485C275.944 169.68 275.717 170.264 275.912 170.782L276.593 172.436L273.707 173.603L273.026 171.95C272.832 171.431 272.248 171.204 271.729 171.398L270.562 171.852C270.043 172.047 269.816 172.631 270.011 173.149L270.691 174.803L257.754 180.024L254.414 171.982ZM303.603 171.204L265.341 186.671C262.974 187.611 260.283 186.476 259.31 184.109L258.175 181.321L271.113 176.1L272.086 178.532C272.28 179.051 272.864 179.278 273.383 179.083L274.55 178.629C275.069 178.435 275.296 177.851 275.101 177.332L274.129 174.9L277.014 173.733L277.987 176.165C278.182 176.684 278.765 176.911 279.284 176.716L280.451 176.262C280.97 176.068 281.197 175.484 281.003 174.965L280.03 172.533L282.916 171.366L283.888 173.798C284.083 174.317 284.667 174.544 285.185 174.349L286.353 173.895C286.872 173.701 287.098 173.117 286.904 172.598L285.931 170.166L288.817 168.999L289.79 171.431C289.984 171.95 290.568 172.177 291.087 171.982L292.254 171.528C292.773 171.334 293 170.75 292.805 170.231L291.833 167.799L305.094 162.449L306.229 165.238C307.137 167.54 305.97 170.264 303.603 171.204Z" fill="#D5D4D4"/>
<path d="M140.288 39.647L69.032 49.847L82.7423 145.626L153.999 135.426L140.288 39.647Z" fill="#D5D4D4"/>
<path d="M249.55 212.708L247.086 214.102L243.649 208.201L241.282 209.595C240.796 205.477 238.818 185.828 237.78 180.704C237.164 177.689 228.734 173.247 221.535 170.004V106.549C221.535 104.214 219.655 102.333 217.32 102.333H197.703V99.9663C197.703 98.8314 196.762 97.8911 195.628 97.8911H191.38C189.824 94.2595 186.224 91.7303 182.042 91.7303C177.859 91.7303 174.26 94.2595 172.703 97.8911H168.456C167.321 97.8911 166.38 98.8314 166.38 99.9663V102.333H146.763C144.429 102.333 142.548 104.214 142.548 106.549V144.097L125.849 144.259C123.774 144.291 122.12 146.075 122.12 148.247L122.574 197.176C122.574 197.857 122.736 198.473 123.028 199.025C121.277 199.251 119.948 200.711 119.948 202.526V221.138C119.948 233.136 120.531 232.293 120.661 234.465C120.694 235.308 120.726 236.248 120.694 237.091H119.364V244.16L145.239 244.128V237.059H143.423C143.391 236.021 143.423 234.984 143.586 234.465C144.007 233.33 146.504 231.774 148.676 228.564C150.849 225.354 153.248 218.609 153.767 216.826C154.124 215.561 151.368 213.065 149.746 211.768V208.33H212.618C214.791 211.832 217.287 215.269 219.103 216.826C220.303 217.863 221.438 219.225 222.411 220.587L221.276 221.236L224.616 226.942L222.475 228.175L247.216 271.656L274.291 256.19L249.55 212.708ZM182.042 95.1025C183.598 95.1025 184.863 96.3671 184.863 97.9235C184.863 99.4799 183.598 100.744 182.042 100.744C180.485 100.744 179.221 99.4799 179.221 97.9235C179.221 96.3671 180.485 95.1025 182.042 95.1025ZM127.016 201.132V202.559C127.016 202.04 126.919 201.586 126.725 201.132H127.016ZM221.503 185.374V182.52C221.6 183.461 221.632 184.433 221.503 185.374Z" fill="#D5D4D4"/>
<path d="M306.585 171.366C311.254 169.485 313.524 164.135 311.643 159.466L293.388 114.266C291.507 109.596 286.157 107.327 281.488 109.207L243.194 124.674C238.525 126.555 236.255 131.905 238.136 136.574L256.391 181.774C258.272 186.444 263.622 188.713 268.291 186.833L306.585 171.366ZM242.351 134.888C241.411 132.521 242.546 129.83 244.913 128.857L283.207 113.39C285.574 112.45 288.265 113.585 289.238 115.952L290.729 119.681L243.875 138.617L242.351 134.888ZM244.361 139.914L291.215 120.978L294.458 129.019L247.604 147.955L244.361 139.914ZM248.155 149.252L295.009 130.316L298.252 138.357L251.398 157.294L248.155 149.252ZM251.916 158.591L298.77 139.654L302.013 147.696L255.159 166.632L251.916 158.591ZM255.678 167.961L302.532 149.025L305.774 157.067L258.92 176.003L255.678 167.961ZM260.574 180.088L259.439 177.3L306.293 158.364L307.428 161.152C308.368 163.519 307.233 166.21 304.866 167.183L266.605 182.65C264.238 183.59 261.547 182.455 260.574 180.088Z" fill="#254458"/>
<path d="M278.796 141.049C279.315 140.854 279.542 140.271 279.348 139.752L277.175 134.337C276.981 133.818 276.397 133.591 275.878 133.786L274.711 134.24C274.192 134.434 273.965 135.018 274.16 135.537L276.332 140.951C276.527 141.47 277.11 141.697 277.629 141.503L278.796 141.049Z" fill="#D3141D"/>
<path d="M298.285 154.667C298.804 154.473 299.031 153.889 298.836 153.37L296.664 147.955C296.469 147.436 295.885 147.209 295.367 147.404L294.199 147.858C293.681 148.052 293.454 148.636 293.648 149.155L295.821 154.57C296.015 155.089 296.599 155.316 297.118 155.121L298.285 154.667Z" fill="#14A4C1"/>
<path d="M293.518 167.475C294.036 167.281 294.263 166.697 294.069 166.178L291.896 160.763C291.702 160.244 291.118 160.017 290.599 160.212L289.432 160.666C288.913 160.86 288.686 161.444 288.881 161.963L291.053 167.378C291.248 167.897 291.832 168.124 292.35 167.929L293.518 167.475Z" fill="#ECE31C"/>
<path d="M287.617 169.842C288.136 169.648 288.363 169.064 288.168 168.545L285.996 163.13C285.801 162.611 285.218 162.384 284.699 162.579L283.532 163.033C283.013 163.228 282.786 163.811 282.98 164.33L285.153 169.745C285.347 170.264 285.931 170.491 286.45 170.296L287.617 169.842Z" fill="#ECE31C"/>
<path d="M281.715 172.209C282.234 172.015 282.461 171.431 282.266 170.912L280.094 165.497C279.899 164.978 279.315 164.751 278.797 164.946L277.629 165.4C277.11 165.594 276.884 166.178 277.078 166.697L279.251 172.112C279.445 172.631 280.029 172.858 280.548 172.663L281.715 172.209Z" fill="#ECE31C"/>
<path d="M275.814 174.609C276.333 174.414 276.56 173.83 276.366 173.312L274.193 167.897C273.999 167.378 273.415 167.151 272.896 167.346L271.729 167.799C271.21 167.994 270.983 168.578 271.178 169.096L273.35 174.511C273.545 175.03 274.128 175.257 274.647 175.063L275.814 174.609Z" fill="#ECE31C"/>
<path d="M292.447 157.002C292.966 156.807 293.193 156.224 292.998 155.705L290.826 150.29C290.631 149.771 290.048 149.544 289.529 149.739L288.362 150.193C287.843 150.387 287.616 150.971 287.81 151.49L289.983 156.905C290.177 157.423 290.761 157.65 291.28 157.456L292.447 157.002Z" fill="#14A4C1"/>
<path d="M286.644 159.336C287.163 159.142 287.39 158.558 287.195 158.039L285.023 152.624C284.828 152.105 284.245 151.879 283.726 152.073L282.559 152.527C282.04 152.722 281.813 153.305 282.007 153.824L284.18 159.239C284.374 159.758 284.958 159.985 285.477 159.79L286.644 159.336Z" fill="#14A4C1"/>
<path d="M280.839 161.703C281.358 161.509 281.585 160.925 281.39 160.406L279.218 154.991C279.023 154.473 278.44 154.246 277.921 154.44L276.754 154.894C276.235 155.089 276.008 155.672 276.202 156.191L278.375 161.606C278.569 162.125 279.153 162.352 279.672 162.157L280.839 161.703Z" fill="#14A4C1"/>
<path d="M275.035 164.038C275.554 163.844 275.781 163.26 275.586 162.741L273.414 157.326C273.219 156.807 272.636 156.58 272.117 156.775L270.949 157.229C270.431 157.423 270.204 158.007 270.398 158.526L272.571 163.941C272.765 164.46 273.349 164.687 273.868 164.492L275.035 164.038Z" fill="#14A4C1"/>
<path d="M269.199 166.373C269.717 166.178 269.944 165.594 269.75 165.076L267.577 159.661C267.383 159.142 266.799 158.915 266.28 159.109L265.113 159.563C264.594 159.758 264.367 160.342 264.562 160.86L266.734 166.275C266.929 166.794 267.513 167.021 268.031 166.827L269.199 166.373Z" fill="#14A4C1"/>
<path d="M287.454 148.15C287.973 147.955 288.2 147.372 288.006 146.853L285.833 141.438C285.639 140.919 285.055 140.692 284.536 140.887L283.369 141.341C282.85 141.535 282.623 142.119 282.818 142.638L284.99 148.053C285.185 148.571 285.768 148.798 286.287 148.604L287.454 148.15Z" fill="#210E81"/>
<path d="M281.91 150.387C282.429 150.193 282.656 149.609 282.461 149.09L280.289 143.675C280.094 143.156 279.51 142.929 278.992 143.124L277.824 143.578C277.306 143.772 277.079 144.356 277.273 144.875L279.446 150.29C279.64 150.809 280.224 151.036 280.743 150.841L281.91 150.387Z" fill="#210E81"/>
<path d="M276.365 152.624C276.884 152.43 277.111 151.846 276.917 151.327L274.744 145.912C274.55 145.394 273.966 145.167 273.447 145.361L272.28 145.815C271.761 146.01 271.534 146.593 271.729 147.112L273.901 152.527C274.096 153.046 274.679 153.273 275.198 153.078L276.365 152.624Z" fill="#210E81"/>
<path d="M270.821 154.862C271.339 154.667 271.566 154.084 271.372 153.565L269.199 148.15C269.005 147.631 268.421 147.404 267.902 147.599L266.735 148.053C266.216 148.247 265.989 148.831 266.184 149.35L268.356 154.764C268.551 155.283 269.135 155.51 269.653 155.316L270.821 154.862Z" fill="#210E81"/>
<path d="M265.275 157.099C265.794 156.905 266.021 156.321 265.826 155.802L263.654 150.387C263.459 149.869 262.876 149.642 262.357 149.836L261.19 150.29C260.671 150.485 260.444 151.068 260.638 151.587L262.811 157.002C263.005 157.521 263.589 157.748 264.108 157.553L265.275 157.099Z" fill="#210E81"/>
<path d="M274.225 142.897C274.744 142.703 274.971 142.119 274.777 141.6L272.604 136.185C272.41 135.666 271.826 135.439 271.307 135.634L270.14 136.088C269.621 136.282 269.394 136.866 269.589 137.385L271.761 142.8C271.956 143.319 272.539 143.546 273.058 143.351L274.225 142.897Z" fill="#D3141D"/>
<path d="M269.653 144.745C270.172 144.551 270.399 143.967 270.204 143.448L268.032 138.033C267.837 137.515 267.254 137.288 266.735 137.482L265.568 137.936C265.049 138.131 264.822 138.714 265.016 139.233L267.189 144.648C267.383 145.167 267.967 145.394 268.486 145.199L269.653 144.745Z" fill="#D3141D"/>
<path d="M265.081 146.593C265.6 146.399 265.827 145.815 265.632 145.296L263.46 139.881C263.265 139.363 262.682 139.136 262.163 139.33L260.996 139.784C260.477 139.979 260.25 140.562 260.444 141.081L262.617 146.496C262.811 147.015 263.395 147.242 263.914 147.047L265.081 146.593Z" fill="#D3141D"/>
<path d="M282.85 128.111C283.369 127.917 283.596 127.333 283.401 126.814L281.229 121.399C281.034 120.881 280.451 120.654 279.932 120.848L278.764 121.302C278.246 121.497 278.019 122.08 278.213 122.599L280.386 128.014C280.58 128.533 281.164 128.76 281.683 128.565L282.85 128.111Z" fill="#32962A"/>
<path d="M278.57 129.83C279.089 129.635 279.316 129.052 279.121 128.533L276.949 123.118C276.754 122.599 276.171 122.372 275.652 122.567L274.485 123.021C273.966 123.215 273.739 123.799 273.933 124.318L276.106 129.733C276.3 130.251 276.884 130.478 277.403 130.284L278.57 129.83Z" fill="#32962A"/>
<path d="M274.29 131.581C274.809 131.386 275.036 130.803 274.841 130.284L272.669 124.869C272.474 124.35 271.891 124.123 271.372 124.318L270.204 124.772C269.686 124.966 269.459 125.55 269.653 126.069L271.826 131.484C272.02 132.002 272.604 132.229 273.123 132.035L274.29 131.581Z" fill="#32962A"/>
<path d="M270.01 133.299C270.529 133.105 270.756 132.521 270.561 132.002L268.389 126.587C268.194 126.068 267.611 125.842 267.092 126.036L265.924 126.49C265.406 126.685 265.179 127.268 265.373 127.787L267.546 133.202C267.74 133.721 268.324 133.948 268.843 133.753L270.01 133.299Z" fill="#32962A"/>
<path d="M265.73 135.018C266.249 134.823 266.476 134.24 266.281 133.721L264.109 128.306C263.914 127.787 263.331 127.56 262.812 127.755L261.644 128.209C261.126 128.403 260.899 128.987 261.093 129.506L263.266 134.921C263.46 135.439 264.044 135.666 264.563 135.472L265.73 135.018Z" fill="#32962A"/>
<path d="M136.69 38.5762L65.4338 48.7762L79.1442 144.555L150.401 134.355L136.69 38.5762Z" fill="white"/>
<path d="M135.963 88.7582L80.5304 96.6931L81.2701 101.861L136.702 93.9259L135.963 88.7582Z" fill="#BABABA"/>
<path d="M137.421 98.9394L81.989 106.874L82.7287 112.042L138.161 104.107L137.421 98.9394Z" fill="#BABABA"/>
<path d="M138.88 109.12L83.4478 117.055L84.1875 122.223L139.62 114.288L138.88 109.12Z" fill="#BABABA"/>
<path d="M94.9654 68.2337L86.3137 69.345L88.689 87.8383L97.3407 86.7271L94.9654 68.2337Z" fill="#FCCA18"/>
<path d="M109.803 59.9282L101.151 61.0394L104.336 85.8366L112.988 84.7254L109.803 59.9282Z" fill="#229DA9"/>
<path d="M124.914 52.8784L116.263 53.9896L120.092 83.8041L128.744 82.6929L124.914 52.8784Z" fill="#F8846D"/>
<path d="M220.823 202.396H138.853C136.097 202.396 133.827 200.159 133.827 197.37V83.9479C133.827 81.1917 136.064 78.922 138.853 78.922H220.823C223.579 78.922 225.849 81.1593 225.849 83.9479V197.37C225.817 200.159 223.579 202.396 220.823 202.396Z" fill="#6D5536"/>
<path d="M215.829 197.305H143.814C141.22 197.305 139.112 195.198 139.112 192.604V88.7143C139.112 86.1203 141.22 84.0127 143.814 84.0127H215.829C218.423 84.0127 220.531 86.1203 220.531 88.7143V192.604C220.531 195.198 218.423 197.305 215.829 197.305Z" fill="white"/>
<path d="M195.662 73.7665H190.733C188.918 69.5512 184.735 66.6006 179.839 66.6006C174.942 66.6006 170.76 69.5512 168.944 73.7665H164.015C162.686 73.7665 161.583 74.8365 161.583 76.1984V85.4071C161.583 86.7365 162.653 87.8389 164.015 87.8389H195.662C196.991 87.8389 198.094 86.7689 198.094 85.4071V76.1984C198.061 74.8365 196.991 73.7665 195.662 73.7665ZM179.839 77.0414C178.023 77.0414 176.564 75.5823 176.564 73.7665C176.564 71.9507 178.023 70.4916 179.839 70.4916C181.654 70.4916 183.114 71.9507 183.114 73.7665C183.114 75.5823 181.654 77.0414 179.839 77.0414Z" fill="#F8846D"/>
<path d="M210.545 123.117H182.594V127.397H210.545V123.117Z" fill="#BABABA"/>
<path d="M211.096 133.299H183.145V137.579H211.096V133.299Z" fill="#BABABA"/>
<path d="M211.096 143.48H183.145V147.76H211.096V143.48Z" fill="#BABABA"/>
<path d="M210.545 164.459H182.594V168.739H210.545V164.459Z" fill="#BABABA"/>
<path d="M211.096 174.673H183.145V178.953H211.096V174.673Z" fill="#BABABA"/>
<path d="M211.096 184.854H183.145V189.134H211.096V184.854Z" fill="#BABABA"/>
<path d="M211.096 153.661H148.808V157.942H211.096V153.661Z" fill="#BABABA"/>
<path d="M211.096 94.6481H148.808V98.9282H211.096V94.6481Z" fill="#BABABA"/>
<path d="M166.642 105.413H148.808V112.547H166.642V105.413Z" fill="#FCCA18"/>
<path d="M187.685 105.413H169.851V112.547H187.685V105.413Z" fill="#229DA9"/>
<path d="M209.799 105.413H191.965V112.547H209.799V105.413Z" fill="#F8846D"/>
<path d="M163.399 135.438L162.296 123.117C155.973 123.668 151.045 128.986 151.045 135.438C151.045 142.28 156.589 147.792 163.399 147.792C169.722 147.792 174.942 143.026 175.688 136.898L163.399 135.438Z" fill="#FCCA18"/>
<path d="M173.645 128.5C171.408 125.225 167.679 123.085 163.399 123.085C163.042 123.085 162.653 123.117 162.297 123.149L163.399 135.471L173.645 128.5Z" fill="#229DA9"/>
<path d="M173.645 128.5L163.399 135.438L175.688 136.898C175.752 136.411 175.785 135.925 175.785 135.438C175.785 132.877 174.974 130.477 173.645 128.5Z" fill="#F8846D"/>
<path d="M163.398 178.337L164.435 190.658C170.758 190.14 175.719 184.854 175.784 178.402C175.817 171.56 170.337 165.983 163.495 165.951C157.172 165.918 151.919 170.652 151.141 176.781L163.398 178.337Z" fill="#FCCA18"/>
<path d="M153.119 185.211C155.324 188.486 159.053 190.658 163.333 190.691C163.69 190.691 164.079 190.691 164.435 190.658L163.398 178.337L153.119 185.211Z" fill="#229DA9"/>
<path d="M153.119 185.211L163.398 178.337L151.141 176.78C151.076 177.267 151.044 177.753 151.044 178.239C151.012 180.833 151.79 183.233 153.119 185.211Z" fill="#F8846D"/>
<path d="M248.903 204.407C248.481 201.099 246.017 176.456 244.753 170.231C244.039 166.697 234.15 161.541 225.784 157.747V171.885C225.946 173.246 226.011 174.706 225.784 176.035V176.262L225.752 176.229C225.427 177.948 224.649 179.407 223.028 180.088C223.028 180.088 218.877 180.996 215.765 176.619C213.657 173.668 207.691 164.978 204.027 159.628C202.406 157.293 199.163 156.807 196.926 158.59C195.013 160.147 194.559 162.87 195.823 164.946L208.891 186.216C208.891 186.216 210.123 188.421 210.123 191.307C210.123 194.193 218.424 208.298 222.963 212.221C227.535 216.145 231.037 223.829 231.037 223.829L251.335 212.643C251.4 212.708 249.325 207.747 248.903 204.407Z" fill="#F0AE74"/>
<path d="M198.547 160.049C197.25 160.86 197.023 162.773 197.996 164.362L199.876 167.215L204.546 164.265L202.665 161.411C201.692 159.822 199.844 159.239 198.547 160.049Z" fill="#F5D6B8"/>
<path d="M229.723 224.601L255.752 209.44L251.607 202.324L225.578 217.484L229.723 224.601Z" fill="#E7E6E6"/>
<path d="M287.294 258.168L255.745 276.196L226.951 225.548L258.468 207.52L287.294 258.168Z" fill="#123261"/>
<path d="M154.739 127.397L114.402 127.754C112.003 127.787 110.057 129.862 110.09 132.423L110.608 189.426C110.641 191.988 112.619 194.031 115.018 193.998L155.355 193.642C157.754 193.609 159.7 191.534 159.667 188.972L159.149 131.969C159.116 129.44 157.138 127.397 154.739 127.397Z" fill="#2E536D"/>
<path d="M153.129 133.817L115.808 134.16L115.931 147.617L153.252 147.274L153.129 133.817Z" fill="#A4C4BF"/>
<path d="M123.163 150.817L115.965 150.883L116.031 158.082L123.229 158.016L123.163 150.817Z" fill="#36667F"/>
<path d="M133.475 150.72L126.276 150.786L126.343 157.984L133.541 157.918L133.475 150.72Z" fill="#36667F"/>
<path d="M143.787 150.623L136.588 150.689L136.654 157.888L143.853 157.821L143.787 150.623Z" fill="#36667F"/>
<path d="M154.13 150.526L146.932 150.592L146.998 157.79L154.196 157.724L154.13 150.526Z" fill="#F8C524"/>
<path d="M123.26 161.096L116.062 161.163L116.128 168.361L123.326 168.295L123.26 161.096Z" fill="#36667F"/>
<path d="M133.572 160.999L126.374 161.066L126.44 168.264L133.638 168.198L133.572 160.999Z" fill="#36667F"/>
<path d="M143.884 160.902L136.685 160.968L136.752 168.167L143.95 168.1L143.884 160.902Z" fill="#36667F"/>
<path d="M154.228 160.805L147.03 160.871L147.096 168.069L154.294 168.003L154.228 160.805Z" fill="#F8C524"/>
<path d="M123.357 171.376L116.159 171.442L116.225 178.64L123.423 178.574L123.357 171.376Z" fill="#36667F"/>
<path d="M133.67 171.278L126.472 171.344L126.538 178.543L133.736 178.477L133.67 171.278Z" fill="#36667F"/>
<path d="M143.981 171.181L136.782 171.247L136.849 178.446L144.047 178.38L143.981 171.181Z" fill="#36667F"/>
<path d="M123.423 181.298L116.224 181.364L116.291 188.563L123.489 188.497L123.423 181.298Z" fill="#36667F"/>
<path d="M133.767 181.201L126.569 181.267L126.635 188.465L133.833 188.399L133.767 181.201Z" fill="#36667F"/>
<path d="M144.078 181.104L136.88 181.17L136.946 188.368L144.144 188.302L144.078 181.104Z" fill="#36667F"/>
<path d="M154.313 171.084L147.115 171.15L147.27 188.011L154.468 187.945L154.313 171.084Z" fill="#6CC3B1"/>
<path d="M111.614 191.567C113.884 191.567 115.732 193.415 115.732 195.685V191.988C115.732 189.719 117.58 187.87 119.85 187.87C122.12 187.87 123.968 189.719 123.968 191.988V190.335C123.968 187.546 126.205 185.309 128.994 185.309C131.62 185.309 133.793 187.319 133.987 189.913H134.02V169.291C134.02 167.021 135.868 165.173 138.138 165.173C140.408 165.173 142.256 167.021 142.256 169.291V206.45C144.104 207.974 147.379 210.892 146.925 212.351C146.309 214.394 143.553 222.273 140.991 226.002C138.462 229.763 135.544 231.579 135.057 232.909C134.571 234.238 135.057 238.842 135.057 238.842H108.339C108.339 238.842 108.469 235.47 108.339 232.909C108.21 230.379 107.529 231.385 107.529 217.409V195.717C107.529 193.415 109.344 191.567 111.614 191.567Z" fill="#F0AE74"/>
<path d="M138.203 166.989C139.759 166.989 141.056 168.513 141.089 170.426L141.056 173.928L135.35 173.992L135.382 170.491C135.382 168.545 136.647 166.989 138.203 166.989Z" fill="#F5D6B8"/>
<path d="M106.874 244.163L136.997 244.141L136.991 235.905L106.868 235.927L106.874 244.163Z" fill="#E7E6E6"/>
<path d="M88.4296 196.236C94.572 196.236 99.5514 191.256 99.5514 185.114C99.5514 178.972 94.572 173.992 88.4296 173.992C82.2872 173.992 77.3079 178.972 77.3079 185.114C77.3079 191.256 82.2872 196.236 88.4296 196.236Z" fill="#F8FC6B"/>
<path d="M88.4304 194.031C93.3551 194.031 97.3473 190.039 97.3473 185.114C97.3473 180.189 93.3551 176.197 88.4304 176.197C83.5058 176.197 79.5135 180.189 79.5135 185.114C79.5135 190.039 83.5058 194.031 88.4304 194.031Z" fill="#F0D83F"/>
<path d="M88.1376 183.817C86.9379 184.563 86.3218 184.79 85.9327 184.466C85.6085 184.206 85.4464 183.655 86.0624 182.877C86.4191 182.455 86.7758 182.131 87.0676 181.904C87.4567 181.612 87.5864 181.061 87.2622 180.672L87.2297 180.607C86.9379 180.218 86.4191 180.153 86.03 180.445C85.7058 180.704 85.3167 181.029 84.96 181.45L84.4736 181.061C84.1494 180.802 83.663 180.866 83.4036 181.191C83.1442 181.515 83.209 182.001 83.5333 182.261L84.0845 182.715C83.3063 184.206 83.5333 185.633 84.6357 186.476C85.803 187.416 87.1325 186.995 88.5916 186.054C89.5968 185.373 90.2128 185.211 90.6668 185.6C91.1532 185.99 91.0559 186.671 90.5047 187.384C90.1156 187.87 89.6616 188.259 89.2077 188.551C88.7861 188.811 88.6889 189.394 88.9807 189.783L89.078 189.881C89.3374 190.237 89.8562 190.302 90.2128 190.075C90.6992 189.751 91.218 189.329 91.6395 188.811L92.1908 189.264C92.515 189.524 93.0014 189.459 93.2608 189.135C93.5202 188.811 93.4553 188.324 93.1311 188.065L92.4826 187.546C93.3581 185.957 93.0338 184.498 91.9314 183.623C90.8938 182.715 89.7913 182.78 88.1376 183.817Z" fill="#F8FC6B"/>
<path d="M300.003 101.133C306.145 101.133 311.125 96.154 311.125 90.0116C311.125 83.8693 306.145 78.8899 300.003 78.8899C293.86 78.8899 288.881 83.8693 288.881 90.0116C288.881 96.154 293.86 101.133 300.003 101.133Z" fill="#F8FC6B"/>
<path d="M300.003 98.9286C304.928 98.9286 308.92 94.9364 308.92 90.0117C308.92 85.0871 304.928 81.0948 300.003 81.0948C295.078 81.0948 291.086 85.0871 291.086 90.0117C291.086 94.9364 295.078 98.9286 300.003 98.9286Z" fill="#F0D83F"/>
<path d="M301.301 90.1737C301.009 88.7794 301.041 88.1633 301.463 87.9039C301.82 87.677 302.371 87.7094 302.922 88.5849C303.214 89.0712 303.376 89.4928 303.473 89.8819C303.603 90.3682 304.089 90.6276 304.543 90.4979L304.608 90.4655C305.062 90.3358 305.321 89.8819 305.192 89.4279C305.094 89.0388 304.9 88.5848 304.608 88.0661L305.127 87.7418C305.484 87.5148 305.613 87.0609 305.386 86.7042C305.159 86.3475 304.705 86.2178 304.349 86.4448L303.733 86.8015C302.598 85.5369 301.203 85.2775 300.036 85.9909C298.772 86.7691 298.674 88.1309 299.063 89.8494C299.323 91.0491 299.29 91.6652 298.772 91.9571C298.253 92.2813 297.637 91.957 297.183 91.1788C296.859 90.66 296.664 90.1088 296.567 89.5576C296.469 89.0712 295.951 88.7794 295.497 88.9091L295.367 88.9415C294.945 89.0712 294.686 89.5252 294.783 89.9467C294.913 90.4979 295.14 91.1464 295.464 91.7301L294.848 92.0867C294.491 92.3137 294.362 92.7677 294.589 93.1243C294.816 93.481 295.27 93.6107 295.626 93.3837L296.34 92.9622C297.507 94.3241 299.031 94.5186 300.198 93.8053C301.366 93.1568 301.722 92.0867 301.301 90.1737Z" fill="#F8FC6B"/>
<path d="M150.589 25.2266C156.731 25.2266 161.711 20.2472 161.711 14.1048C161.711 7.96241 156.731 2.98303 150.589 2.98303C144.447 2.98303 139.467 7.96241 139.467 14.1048C139.467 20.2472 144.447 25.2266 150.589 25.2266Z" fill="#D5D4D4"/>
<path d="M151.855 22.2435C157.997 22.2435 162.977 17.2641 162.977 11.1218C162.977 4.97938 157.997 0 151.855 0C145.712 0 140.733 4.97938 140.733 11.1218C140.733 17.2641 145.712 22.2435 151.855 22.2435Z" fill="#F8FC6B"/>
<path d="M151.855 20.0387C156.779 20.0387 160.771 16.0465 160.771 11.1218C160.771 6.19717 156.779 2.20496 151.855 2.20496C146.93 2.20496 142.938 6.19717 142.938 11.1218C142.938 16.0465 146.93 20.0387 151.855 20.0387Z" fill="#F0D83F"/>
<path d="M152.212 9.85729C150.785 9.92214 150.169 9.79243 149.975 9.33848C149.813 8.94939 149.942 8.39816 150.883 8.00906C151.401 7.81451 151.855 7.71724 152.244 7.68481C152.731 7.65239 153.087 7.19844 153.023 6.71206V6.64721C152.958 6.19326 152.536 5.86901 152.082 5.90144C151.661 5.93386 151.207 6.06356 150.656 6.25811L150.429 5.70689C150.266 5.31779 149.813 5.12324 149.456 5.28537C149.067 5.44749 148.872 5.90144 149.034 6.25811L149.294 6.90661C147.867 7.81451 147.381 9.17636 147.899 10.4409C148.451 11.8352 149.813 12.127 151.563 11.9973C152.796 11.9325 153.379 12.0622 153.606 12.6134C153.833 13.1646 153.412 13.7159 152.569 14.0725C151.985 14.2995 151.401 14.3968 150.883 14.4292C150.396 14.4616 150.007 14.8831 150.072 15.4019L150.104 15.5317C150.169 15.9856 150.558 16.2774 151.012 16.2774C151.596 16.245 152.244 16.1153 152.893 15.8883L153.152 16.5368C153.314 16.9259 153.768 17.1205 154.125 16.9583C154.514 16.7962 154.709 16.3423 154.547 15.9856L154.222 15.2074C155.746 14.2671 156.2 12.808 155.681 11.5434C155.163 10.2788 154.19 9.76001 152.212 9.85729Z" fill="#F8FC6B"/>
<path d="M35.6111 85.1155C41.7535 85.1155 46.7329 80.1361 46.7329 73.9937C46.7329 67.8513 41.7535 62.8719 35.6111 62.8719C29.4688 62.8719 24.4894 67.8513 24.4894 73.9937C24.4894 80.1361 29.4688 85.1155 35.6111 85.1155Z" fill="#F8FC6B"/>
<path d="M35.6111 82.9105C40.5357 82.9105 44.5279 78.9183 44.5279 73.9936C44.5279 69.069 40.5357 65.0768 35.6111 65.0768C30.6864 65.0768 26.6942 69.069 26.6942 73.9936C26.6942 78.9183 30.6864 82.9105 35.6111 82.9105Z" fill="#F0D83F"/>
<path d="M36.8107 73.4099C35.8055 72.4047 35.4488 71.8859 35.6758 71.432C35.8703 71.0429 36.3567 70.7835 37.2646 71.205C37.7834 71.432 38.1401 71.7238 38.4319 71.9832C38.7886 72.3074 39.3398 72.275 39.6641 71.9183L39.7289 71.8535C40.0207 71.4968 39.9883 70.978 39.6316 70.6538C39.3074 70.3944 38.9183 70.1026 38.3995 69.8432L38.6589 69.2919C38.821 68.9028 38.6589 68.4489 38.3022 68.2867C37.9455 68.1246 37.4592 68.2867 37.297 68.6434L37.0052 69.2919C35.384 68.8704 34.0545 69.4216 33.4709 70.6862C32.8224 72.048 33.5357 73.2153 34.8003 74.4151C35.6758 75.2581 35.9676 75.8093 35.7406 76.3281C35.4812 76.8794 34.8003 76.9442 33.9897 76.5551C33.4385 76.2957 32.9521 75.939 32.563 75.5824C32.2063 75.2257 31.6227 75.2581 31.2984 75.6472L31.2011 75.7445C30.9093 76.1012 30.9417 76.5875 31.266 76.9118C31.6875 77.3009 32.2387 77.7224 32.8224 78.0142L32.5306 78.6627C32.3684 79.0518 32.5306 79.5058 32.8872 79.6679C33.2763 79.83 33.7303 79.6679 33.8924 79.3112L34.2491 78.5655C36 79.0518 37.3619 78.4033 37.9455 77.1388C38.4967 75.8418 38.2049 74.7717 36.8107 73.4099Z" fill="#F8FC6B"/>
<path d="M43.0683 171.074L40.8959 172.501L38.7234 173.928L39.7286 178.824L39.8907 178.921L39.9555 179.278L48.0293 183.396L47.6403 182.844H47.6727L42.5495 175.322C42.3874 175.322 42.1929 175.289 42.0632 175.16C41.9983 174.9 42.0632 174.609 42.2577 174.479C42.4847 174.349 42.7441 174.382 42.9711 174.544C43.0359 174.706 43.0035 174.9 42.9386 175.03L47.7051 182.877V182.812L48.0618 183.428L47.4457 174.317L47.1539 174.122V173.928L43.0683 171.074Z" fill="#D5D4D4"/>
<path d="M0.0726312 117.151L1.23993 118.935L1.2075 118.967C1.2075 118.967 9.63799 141.211 19.7222 153.078C25.1047 159.401 30.1306 164.946 33.6649 168.707C33.6973 168.739 33.7297 168.772 33.7622 168.804C33.9243 168.999 34.1188 169.193 34.281 169.356C34.3134 169.388 34.3782 169.453 34.4107 169.485C34.5728 169.647 34.7025 169.81 34.8646 169.972L34.897 170.004C37.2316 172.501 38.6583 173.96 38.6583 173.96L40.085 173.02L40.5714 172.695L41.609 172.014L43.0357 171.074C43.0357 171.074 42.8087 170.49 42.3548 169.453C42.2251 169.161 42.0954 168.869 41.9657 168.545C41.7711 168.123 41.5766 167.637 41.3496 167.151C41.3496 167.118 41.3172 167.118 41.3172 167.086C41.1551 166.762 41.0253 166.405 40.8632 166.081C40.8632 166.081 40.8632 166.081 40.8632 166.048C40.6362 165.529 40.4093 165.011 40.1823 164.492C40.1823 164.459 40.1499 164.427 40.1499 164.395C37.6856 158.72 35.1889 153.111 32.303 147.663C31.9464 146.917 31.5897 146.204 31.2006 145.458C28.8984 140.854 25.4614 135.958 21.8946 131.483C20.5328 129.667 19.1385 127.916 17.6794 126.166C16.8039 125.096 7.36825 114.849 7.36825 114.849L6.20095 113.066C6.07125 112.871 5.84427 112.839 5.64972 112.969L0.105058 116.633C0.00778327 116.73 -0.0570686 116.957 0.0726312 117.151Z" fill="#D5D4D4"/>
<path d="M46.7323 169.29L44.5598 170.75L42.3873 172.209L43.4573 177.202L51.6284 181.288L46.1162 173.7C45.8892 173.7 45.6298 173.603 45.5001 173.344C45.3056 173.019 45.338 172.63 45.5974 172.436C45.8568 172.241 46.2459 172.371 46.4729 172.695C46.635 172.922 46.6674 173.214 46.5377 173.441L51.6284 181.255L50.9475 172.209L46.7323 169.29Z" fill="#91908B"/>
<path d="M46.4724 168.966L44.2999 170.425L42.1274 171.885L43.165 176.781L51.2064 180.737L45.8239 173.311C45.5969 173.311 45.3375 173.214 45.2078 172.987C45.0133 172.663 45.0457 172.274 45.3051 172.112C45.5645 171.949 45.9536 172.047 46.1806 172.338C46.3427 172.565 46.3427 172.857 46.2454 173.052L51.2388 180.704L50.6228 171.82L46.4724 168.966Z" fill="#C6C4BD"/>
<path d="M10.1575 113.195L7.98502 114.655L6.46105 115.66L4.28857 117.119C4.28857 117.119 12.8488 139.33 23.0302 151.133C33.2116 162.935 42.0961 171.885 42.0961 171.885L43.5228 170.912L45.0467 169.907L46.4734 168.934C46.4734 168.934 41.5448 157.293 34.4762 143.415C27.44 129.505 10.1575 113.195 10.1575 113.195Z" fill="#4581BA"/>
<path d="M32.4981 157.617C27.0183 151.197 22.3815 144.291 18.3608 136.768C14.6319 129.732 9.96273 122.372 7.9848 114.622C6.68781 115.497 5.26111 116.47 3.96411 117.346C3.96411 117.346 9.8006 130.024 10.4491 131.224C12.9134 135.958 15.6695 140.562 18.685 145.004C24.6188 153.759 31.8171 161.152 39.1128 168.739C40.1179 169.777 41.1231 170.847 42.1607 171.852L43.5874 170.879L44.625 170.198C44.1711 170.49 36.5836 162.125 35.9351 161.411C34.7354 160.179 33.6005 158.914 32.4981 157.617Z" fill="#2C6DB0"/>
<path d="M10.1244 113.195L3.96367 117.346L2.76394 115.562C2.63424 115.368 2.69909 115.141 2.86122 115.011L8.34103 111.315C8.53558 111.185 8.76256 111.25 8.89226 111.412L10.1244 113.195Z" fill="#193F75"/>
<path d="M43.5864 162.287L37.1014 166.632C37.5554 167.086 37.9445 167.54 38.3336 167.929L44.3322 163.908C44.0728 163.422 43.8458 162.87 43.5864 162.287Z" fill="#B8BBBC"/>
<path d="M39.3388 165.14L37.1014 166.632C37.523 167.053 37.9445 167.507 38.366 167.929L40.6033 166.437C40.1494 166.048 39.7279 165.594 39.3388 165.14Z" fill="#9FA0A0"/>
<path d="M102.308 86.9638L88.9164 82.2622L88.8516 82.2298L75.4601 77.5282C73.774 76.9445 71.8609 77.9821 71.18 79.8628L52.5032 133.234C51.8547 135.115 52.6977 137.125 54.3838 137.741L67.7753 142.443L67.8402 142.475L81.2317 147.177C82.9178 147.761 84.8309 146.723 85.5118 144.842L104.189 91.4709C104.837 89.5903 103.994 87.5475 102.308 86.9638Z" fill="#D5D4D4"/>
<path d="M100.719 83.559L87.3274 78.8574L87.2625 78.8249L73.8386 74.1557C72.1525 73.5721 70.2394 74.6097 69.5585 76.4903L50.8817 129.862C50.2332 131.742 51.0763 133.753 52.7624 134.369L66.1539 139.07L66.2187 139.103L79.6102 143.805C81.2963 144.388 83.2094 143.351 83.8903 141.47L102.567 88.0985C103.248 86.1854 102.405 84.175 100.719 83.559Z" fill="#2E536D"/>
<path d="M89.6624 82.943L86.2902 81.7757L86.2254 81.7433L82.8532 80.576C82.4641 80.4463 82.0101 80.6733 81.848 81.1272C81.6859 81.5487 81.8804 82.0351 82.2695 82.1648L85.6417 83.3321L85.7066 83.3645L89.0787 84.5318C89.4678 84.6615 89.9218 84.4346 90.0839 83.9806C90.2785 83.5591 90.0839 83.0727 89.6624 82.943Z" fill="#203A4B"/>
<path d="M67.5806 136.833C68.5118 136.833 69.2667 136.078 69.2667 135.147C69.2667 134.216 68.5118 133.461 67.5806 133.461C66.6494 133.461 65.8945 134.216 65.8945 135.147C65.8945 136.078 66.6494 136.833 67.5806 136.833Z" fill="#203A4B"/>
<path d="M91.1536 87.515L91.0888 87.4826L70.661 80.3491L54.4161 126.814L74.8114 133.948L74.8763 133.98L83.3392 136.931L99.6165 90.4981L91.1536 87.515Z" fill="#D1DDD3"/>
<path d="M91.1536 87.515L91.0888 87.4826L70.661 80.3491L54.4161 126.814L58.9881 128.403L92.5479 88.0014L91.1536 87.515Z" fill="url(#paint0_linear_1_1537)"/>
<path d="M284.083 119.032L266.249 98.6692L263.947 100.68L259.57 95.8158L255.873 99.0583L260.251 103.922L257.948 105.932L275.782 126.295C277.792 128.597 281.294 128.824 283.564 126.814C285.866 124.804 286.093 121.334 284.083 119.032Z" fill="#D5D4D4"/>
<path d="M259.116 63.0988C250.426 53.2092 235.381 52.204 225.459 60.8615C215.569 69.5514 214.564 84.5966 223.221 94.5186C231.263 103.695 244.816 105.219 254.641 98.4744L258.856 94.778C266.865 85.8936 267.157 72.2751 259.116 63.0988Z" fill="#D5D4D4"/>
<path opacity="0.45" d="M242.449 95.4264C253.695 95.4264 262.812 86.3097 262.812 75.0636C262.812 63.8174 253.695 54.7007 242.449 54.7007C231.203 54.7007 222.086 63.8174 222.086 75.0636C222.086 86.3097 231.203 95.4264 242.449 95.4264Z" fill="#BADEE6"/>
<path d="M262.099 98.5391L263.915 96.9178L262.099 98.5391Z" fill="#2C3F50"/>
<path d="M284.083 115.27C286.093 117.573 285.866 121.042 283.564 123.052C281.262 125.063 277.792 124.836 275.782 122.534L257.948 102.171L260.25 100.16L266.249 94.9076L284.083 115.27Z" fill="#2E536D"/>
<path opacity="0.41" d="M244.614 59.8418C240.157 59.7006 236.425 63.3443 236.278 67.9801C236.132 72.6159 239.626 76.4884 244.082 76.6295C248.539 76.7706 252.271 73.127 252.418 68.4911C252.565 63.8553 249.071 59.9829 244.614 59.8418Z" fill="white"/>
<path d="M263.914 96.9181L262.098 98.5393L263.914 96.9181L266.248 94.9077L260.25 100.161L255.84 95.2968L259.536 92.0543L263.914 96.9181Z" fill="#BABABA"/>
<path d="M223.221 90.7249C231.262 99.9012 244.816 101.425 254.641 94.6807L258.856 90.9843C266.865 82.1323 267.124 68.5138 259.083 59.3051C250.393 49.4155 235.348 48.4103 225.426 57.0678C215.536 65.7577 214.563 80.8353 223.221 90.7249ZM228.603 60.6994C236.515 53.7604 248.545 54.5711 255.484 62.4828C262.423 70.3944 261.612 82.4241 253.7 89.363C245.789 96.302 233.759 95.4914 226.82 87.5797C219.913 79.668 220.692 67.6383 228.603 60.6994Z" fill="#2E536D"/>
<path d="M78.4435 184.822C84.5859 184.822 89.5653 179.843 89.5653 173.7C89.5653 167.558 84.5859 162.579 78.4435 162.579C72.3012 162.579 67.3218 167.558 67.3218 173.7C67.3218 179.843 72.3012 184.822 78.4435 184.822Z" fill="#D5D4D4"/>
<path d="M78.4432 182.196C84.5856 182.196 89.5649 177.216 89.5649 171.074C89.5649 164.932 84.5856 159.952 78.4432 159.952C72.3008 159.952 67.3214 164.932 67.3214 171.074C67.3214 177.216 72.3008 182.196 78.4432 182.196Z" fill="#F8FC6B"/>
<path d="M78.443 179.991C83.3676 179.991 87.3598 175.999 87.3598 171.074C87.3598 166.149 83.3676 162.157 78.443 162.157C73.5183 162.157 69.5261 166.149 69.5261 171.074C69.5261 175.999 73.5183 179.991 78.443 179.991Z" fill="#F0D83F"/>
<path d="M79.6103 170.458C78.6052 169.485 78.2485 168.934 78.443 168.513C78.6052 168.123 79.0915 167.832 80.0319 168.253C80.5507 168.48 80.9398 168.74 81.2316 168.999C81.5883 169.323 82.1719 169.291 82.4637 168.902L82.4962 168.837C82.788 168.48 82.7231 167.929 82.3665 167.637C82.0422 167.378 81.6531 167.086 81.1019 166.859L81.3613 166.308C81.5234 165.919 81.3613 165.465 80.9722 165.303C80.5831 165.14 80.1291 165.303 79.967 165.692L79.6752 166.34C78.0215 165.951 76.7245 166.535 76.1733 167.799C75.5572 169.161 76.2706 170.328 77.5676 171.528C78.4755 172.339 78.7673 172.89 78.5403 173.441C78.2809 173.992 77.6 174.057 76.7894 173.701C76.2381 173.441 75.7518 173.117 75.3627 172.728C75.006 172.371 74.4223 172.404 74.0981 172.825L74.0008 172.922C73.709 173.279 73.7738 173.765 74.0981 174.09C74.5196 174.479 75.0708 174.868 75.6869 175.16L75.3951 175.808C75.233 176.197 75.3951 176.651 75.7842 176.813C76.1733 176.976 76.6272 176.813 76.7894 176.424L77.1136 175.646C78.8646 176.1 80.2264 175.419 80.7776 174.155C81.3613 172.89 81.037 171.82 79.6103 170.458Z" fill="#F8FC6B"/>
<path d="M297.345 72.3078C315.898 72.3078 330.937 57.268 330.937 38.7155C330.937 20.1631 315.898 5.12329 297.345 5.12329C278.793 5.12329 263.753 20.1631 263.753 38.7155C263.753 57.268 278.793 72.3078 297.345 72.3078Z" fill="#D5D4D4"/>
<path d="M295.788 67.3791C314.341 67.3791 329.381 52.3393 329.381 33.7868C329.381 15.2343 314.341 0.19458 295.788 0.19458C277.236 0.19458 262.196 15.2343 262.196 33.7868C262.196 52.3393 277.236 67.3791 295.788 67.3791Z" fill="#F3F3F3"/>
<path d="M295.788 63.9096C312.425 63.9096 325.911 50.4232 325.911 33.7868C325.911 17.1505 312.425 3.66406 295.788 3.66406C279.152 3.66406 265.665 17.1505 265.665 33.7868C265.665 50.4232 279.152 63.9096 295.788 63.9096Z" fill="#DADADA"/>
<path d="M319.329 29.7338H315.178C315.113 29.7338 315.081 29.7338 315.049 29.7338C314.659 27.8208 313.946 25.9401 312.941 24.1567C307.623 14.6886 295.626 11.3165 286.19 16.6341C276.722 21.9518 273.35 33.9491 278.668 43.3847C283.985 52.8528 295.983 56.225 305.418 50.9073C310.574 48.0215 313.914 43.1578 315.016 37.8076C315.081 37.8076 315.113 37.8076 315.178 37.8076H319.329C321.566 37.8076 323.382 35.9918 323.382 33.7545C323.349 31.5496 321.566 29.7338 319.329 29.7338Z" fill="#F3F3F3"/>
<path d="M295.789 48.4428C303.883 48.4428 310.445 41.881 310.445 33.7867C310.445 25.6924 303.883 19.1306 295.789 19.1306C287.694 19.1306 281.133 25.6924 281.133 33.7867C281.133 41.881 287.694 48.4428 295.789 48.4428Z" fill="#2F1C15"/>
<path d="M288.59 21.0114C281.522 24.9673 279.025 33.9166 282.981 40.9852L308.532 26.621C304.608 19.5523 295.659 17.0232 288.59 21.0114Z" fill="#3E251B"/>
<defs>
<linearGradient id="paint0_linear_1_1537" x1="28.937" y1="135.12" x2="88.6241" y2="83.9874" gradientUnits="userSpaceOnUse">
<stop/>
<stop offset="0.2577" stop-color="#060606"/>
<stop offset="0.395" stop-color="#0F0F0F"/>
<stop offset="0.504" stop-color="#181818"/>
<stop offset="0.5982" stop-color="#2A2A2A"/>
<stop offset="0.6828" stop-color="#424242"/>
<stop offset="0.7605" stop-color="#60605F"/>
<stop offset="0.833" stop-color="#828281"/>
<stop offset="0.9013" stop-color="#A9A8A7"/>
<stop offset="0.964" stop-color="#D2D1CF"/>
<stop offset="1" stop-color="#EDECE8"/>
</linearGradient>
</defs>
</svg>
