<svg width="425" height="243" viewBox="0 0 425 243" fill="none" xmlns="http://www.w3.org/2000/svg">
<path d="M0 242.99L117.055 220.225L212.37 242.99L307.685 220.225L424.74 242.989L322.747 124.685L143.837 127.779L0 242.99Z" fill="#B3B3B3"/>
<path d="M127.258 26.9886L41.1179 68.471L0 242.99L117.055 189.327L127.258 26.9886Z" fill="#FDFDFD"/>
<path d="M126.629 37.0056L118 174.195L18.2207 220.118L50.2488 74.9386L126.629 37.0056Z" fill="#F2E8D0"/>
<path d="M212.37 74.9065L127.258 26.9886L117.054 189.327L212.37 242.99V74.9065Z" fill="#F1F1F1"/>
<path d="M424.74 242.989L307.687 189.329L297.482 26.9886L383.624 68.471L408.657 174.724L410.893 184.213L424.74 242.989Z" fill="#F1F1F1"/>
<path d="M212.37 74.9065L297.483 26.9886L307.685 189.327L212.37 242.99V74.9065Z" fill="#FDFDFD"/>
<path d="M212.37 84.4224V226.015L118 174.195L126.629 37.0056L212.37 84.4224Z" fill="#D3C8AE"/>
<path d="M406.522 220.118L358.086 197.827L349.299 193.781L306.74 174.195L305.951 161.65L305.271 150.821L302.694 109.83L302.13 100.88L298.113 37.0056L344.177 59.8834H344.18L353.102 64.3162L374.494 74.9386L382.488 111.174L385.184 123.404L395.854 171.763L397.988 181.439L406.522 220.118Z" fill="#D3C8AE"/>
<path d="M306.74 174.195L212.37 226.015V84.4224L298.112 37.0056L306.74 174.195Z" fill="#F2E8D0"/>
<path d="M121.545 117.836L120.836 129.113L109.965 137.751L104.629 180.348L96.3649 184.151L102.351 136.375L80.7958 113.447L26.0278 184.724L30.1555 166.017L75.1563 107.447L49.1709 79.808L50.2463 74.9411L50.2488 74.9386L54.0983 73.0248L107.049 129.354L121.545 117.836Z" fill="white"/>
<path d="M30.1548 166.017L75.1569 107.448L49.1715 79.808L30.1548 166.017Z" fill="#94DA85"/>
<path d="M18.2207 220.118L96.3661 184.151L102.351 136.375L80.7945 113.447L26.0278 184.726L18.2207 220.118Z" fill="#94DA85"/>
<path d="M120.836 129.113L118 174.195L152.032 192.882L189.733 119.365L171.16 110.193L120.836 129.113Z" fill="#D3C8AE"/>
<path d="M109.965 137.752L120.836 129.113L118 174.195L104.628 180.348L109.965 137.752Z" fill="#F2E8D0"/>
<path d="M158.999 196.707L212.37 226.015V181.782L177.34 160.944L158.999 196.707Z" fill="#D3C8AE"/>
<path d="M212.37 171.865V130.542L277.707 113.691L282.107 146.931L252.741 179.974L212.37 171.865Z" fill="#FFEABB"/>
<path d="M285.215 186.015L260.659 199.499C259.001 193.049 256.853 191.504 255.174 185.524C253.273 178.751 251.435 164.371 257.202 155.915C258.197 154.457 259.906 152.457 259.636 149.901C259.336 147.053 256.67 144.346 253.957 143.886C252.67 143.669 250.076 143.736 242.598 152.214C236.777 158.815 214.471 167.944 212.369 166.935V134.131C216.093 134.988 225.136 136.073 232.05 131.23C241.011 124.957 244.325 125.113 250.576 123.065C257.698 120.733 268.054 121.824 273.159 128.561C280.662 138.464 272.864 141.435 277.892 164.242C280.372 175.497 283.779 181.201 285.215 186.015Z" fill="#7ACAEA"/>
<path d="M181.235 153.347L196.858 122.884L212.369 130.543V171.865L181.235 153.347Z" fill="#FCE5A7"/>
<path d="M305.95 161.65L287.324 153.402L254.363 189.533L212.37 181.782V171.865L252.741 179.974L282.107 146.931L277.707 113.691L212.37 130.543V120.963L276.555 104.995L269.509 52.8234L276.957 48.7061L284.237 103.945L302.129 100.88L302.693 109.83L286.648 112.648L285.411 112.865L289.614 144.758L305.269 150.821L305.95 161.65Z" fill="white"/>
<path d="M353.109 171.789L358.086 197.827L349.298 193.781L344.79 170L305.95 161.65L305.269 150.821H305.27L342.8 159.498L332.394 104.611L302.693 109.83L302.129 100.88L349.457 92.7668L344.177 59.8835H344.179L353.102 64.3164L358.024 92.0919L382.487 111.174L385.184 123.404L354.898 100.734L340.018 103.295L351.127 161.423L395.854 171.763L397.988 181.439L353.109 171.789Z" fill="#F1F1F1"/>
<path d="M276.957 48.7059L284.237 103.945L302.13 100.88L298.113 37.0056L276.957 48.7059Z" fill="#94DA85"/>
<path d="M298.113 37.0056L344.177 59.8833L349.458 92.7666L302.13 100.88L298.113 37.0056Z" fill="#8CCB7D"/>
<path d="M340.018 103.295L354.898 100.733L385.184 123.404L395.854 171.763L351.127 161.423L340.018 103.295Z" fill="#8CCB7D"/>
<path d="M353.11 171.789L397.988 181.439L406.521 220.118L358.086 197.827L353.11 171.789Z" fill="#8CCB7D"/>
<path d="M302.693 109.83L332.394 104.611L342.8 159.498L305.27 150.821L302.693 109.83Z" fill="#8CCB7D"/>
<path d="M302.694 109.83L285.412 112.865L289.614 144.758L305.271 150.821L302.694 109.83Z" fill="#94DA85"/>
<path d="M126.629 37.0056L166.129 58.8492V102.016L121.546 117.836L126.629 37.0056Z" fill="#FCE5A7"/>
<path d="M126.629 37.0056L54.0986 73.0248L107.049 129.354L121.546 117.836L126.629 37.0056Z" fill="#FFEABB"/>
<path d="M212.37 134.131V166.935C209.064 165.23 204.157 162.162 196.757 156.84C184.71 148.172 178.688 143.837 170.794 136.02C160.965 126.286 152.086 117.493 144.83 102.245C139.492 91.0281 137.447 81.3987 136.311 75.8737C136.042 74.5665 133.711 62.8289 134.688 47.6513C134.854 45.0653 135.063 43.2146 135.373 41.8405L157.771 54.2259C156.71 58.9009 153.89 63.8862 154.972 72.6347C155.739 78.8255 157.307 77.5995 161.463 90.2155C166.293 104.875 165.195 109.629 169.982 114.737C171.814 116.692 172.218 116.252 182.153 120.751C196.028 127.033 197.723 129.011 206.899 132.317C208.818 133.009 210.649 133.608 212.37 134.128V134.131Z" fill="#45B9DD"/>
<path d="M212.37 130.543V120.963L173.837 101.935V63.1135L166.129 58.8494V102.016L121.546 117.836L120.836 129.113L171.159 110.193L189.733 119.365L152.032 192.882L158.999 196.707L177.34 160.944L212.37 181.782V171.865L181.236 153.347L196.859 122.884L212.37 130.543Z" fill="#F1F1F1"/>
<path d="M212.37 84.4227L269.509 52.8235L276.555 104.995L212.37 120.963V84.4227Z" fill="#94DA85"/>
<path d="M173.837 63.1133V101.935L212.37 120.963V84.4224L173.837 63.1133Z" fill="#8CCB7D"/>
<path d="M93.2218 0C72.7717 0 56.1956 16.5762 56.1956 37.0263V37.0289C56.1956 37.2092 56.1956 37.3869 56.1981 37.5646C56.5471 67.7021 81.6993 73.0596 92.3654 105.031C92.6397 105.854 93.8027 105.854 94.077 105.031C104.741 73.0583 129.897 67.7021 130.243 37.5646C130.246 37.3869 130.248 37.2092 130.248 37.0289V37.0263C130.248 16.5762 113.669 0 93.2218 0ZM93.2218 55.5381C82.9961 55.5381 74.7074 47.2494 74.7074 37.0263C74.7074 26.8032 82.9961 18.5119 93.2218 18.5119C103.448 18.5119 111.734 26.8006 111.734 37.0263C111.734 47.252 103.445 55.5381 93.2218 55.5381Z" fill="#FF565A"/>
<path d="M111.736 37.0238C111.736 47.2495 103.447 55.5383 93.2214 55.5383C82.9957 55.5383 74.7043 47.2495 74.7043 37.0238C74.7043 26.7981 82.9931 18.5068 93.2214 18.5068C103.45 18.5068 111.736 26.7956 111.736 37.0238Z" fill="#FDFDFD"/>
<path d="M361.112 54.2786C340.662 54.2786 324.086 70.8547 324.086 91.3048V91.3074C324.086 91.4877 324.089 91.6655 324.091 91.8432C324.438 121.981 349.592 127.338 360.257 159.31C360.531 160.133 361.694 160.133 361.969 159.31C372.635 127.337 397.788 121.981 398.137 91.8432C398.14 91.6655 398.14 91.4877 398.14 91.3074V91.3048C398.14 70.8547 381.564 54.2786 361.114 54.2786H361.112ZM361.112 109.817C350.889 109.817 342.6 101.528 342.6 91.3048C342.6 81.0817 350.889 72.7904 361.112 72.7904C371.335 72.7904 379.627 81.0792 379.627 91.3048C379.627 101.531 371.338 109.817 361.112 109.817Z" fill="#0B06F4"/>
<path d="M379.627 91.305C379.627 101.529 371.338 109.817 361.112 109.817C350.887 109.817 342.601 101.528 342.601 91.305C342.601 81.0818 350.889 72.7905 361.112 72.7905C371.336 72.7905 379.627 81.0793 379.627 91.305Z" fill="#F1F1F1"/>
</svg>
