<svg width="377" height="276" viewBox="0 0 377 276" fill="none" xmlns="http://www.w3.org/2000/svg">
<g clip-path="url(#clip0_1_1332)">
<path d="M188.5 51.2036C92.5241 51.2036 14.709 129.083 14.709 225.137V267.001H362.29V225.137C362.29 129.083 284.475 51.2036 188.5 51.2036Z" fill="#B9CCD3"/>
<path d="M328.09 205.77H202.678C199.515 205.77 196.947 208.34 196.947 211.506C196.947 214.672 199.515 217.241 202.678 217.241H328.09C331.254 217.241 333.821 214.672 333.821 211.506C333.821 208.34 331.254 205.77 328.09 205.77Z" fill="#A1B9BF"/>
<path d="M327.569 217.204H203.274V227H327.569V217.204Z" fill="#90AAAF"/>
<path d="M218.01 227H210.27V264.542H218.01V227Z" fill="#A1B9BF"/>
<path d="M320.536 227H312.795V264.542H320.536V227Z" fill="#A1B9BF"/>
<path d="M318.676 229.309H307.958C301.632 229.309 296.533 234.411 296.533 240.743V253.145C296.533 259.477 301.632 264.58 307.958 264.58H318.676C325.002 264.58 330.1 259.477 330.1 253.145V240.743C330.1 234.411 325.002 229.309 318.676 229.309Z" fill="#5A6367"/>
<path d="M324.109 229.309H313.392C307.065 229.309 301.967 234.411 301.967 240.743V253.145C301.967 259.477 307.065 264.58 313.392 264.58H324.109C330.436 264.58 335.534 259.477 335.534 253.145V240.743C335.534 234.411 330.399 229.309 324.109 229.309Z" fill="#4B5256"/>
<path d="M313.391 258.844C310.228 258.844 307.698 256.274 307.698 253.145V240.743C307.698 237.577 310.265 235.044 313.391 235.044H324.109C327.272 235.044 329.803 237.614 329.803 240.743V253.145C329.803 256.311 327.235 258.844 324.109 258.844H313.391Z" fill="#393F42"/>
<path d="M325.114 243.722H314.991C313.205 243.722 311.791 245.175 311.791 246.925C311.791 248.713 313.242 250.129 314.991 250.129H325.114C326.9 250.129 328.314 248.676 328.314 246.925C328.351 245.138 326.9 243.722 325.114 243.722Z" fill="#8B9AA0"/>
<path d="M344.912 229.309H334.194C327.868 229.309 322.77 234.411 322.77 240.743V253.145C322.77 259.477 327.868 264.58 334.194 264.58H344.912C351.238 264.58 356.337 259.477 356.337 253.145V240.743C356.337 234.411 351.238 229.309 344.912 229.309Z" fill="#5A6367"/>
<path d="M350.346 229.309H339.628C333.301 229.309 328.203 234.411 328.203 240.743V253.145C328.203 259.477 333.301 264.58 339.628 264.58H350.346C356.672 264.58 361.77 259.477 361.77 253.145V240.743C361.77 234.411 356.635 229.309 350.346 229.309Z" fill="#4B5256"/>
<path d="M339.628 258.844C336.464 258.844 333.934 256.274 333.934 253.145V240.743C333.934 237.577 336.502 235.044 339.628 235.044H350.345C353.509 235.044 356.039 237.614 356.039 240.743V253.145C356.039 256.311 353.471 258.844 350.345 258.844H339.628Z" fill="#393F42"/>
<path d="M346.438 246.925C346.438 245.808 345.843 244.803 344.95 244.244V243.722H343.2C341.414 243.722 340 245.175 340 246.925C340 248.713 341.451 250.129 343.2 250.129H344.95V249.607C345.88 249.048 346.438 248.043 346.438 246.925Z" fill="#A6B4BC"/>
<path d="M344.987 250.129C346.754 250.129 348.187 248.694 348.187 246.925C348.187 245.156 346.754 243.722 344.987 243.722C343.219 243.722 341.786 245.156 341.786 246.925C341.786 248.694 343.219 250.129 344.987 250.129Z" fill="#8B9AA0"/>
<path d="M177.261 92.9924H123.747V163.758H177.261V92.9924Z" fill="#CAD9DD"/>
<path d="M130.297 102.043C129.366 102.602 129.031 103.793 129.59 104.725L146.15 133.44C146.708 134.372 147.899 134.707 148.829 134.148C149.76 133.589 150.095 132.398 149.537 131.466L132.976 102.751C132.455 101.819 131.227 101.522 130.297 102.043Z" fill="#E4EFF1"/>
<path d="M136.735 98.3184C135.805 98.8771 135.47 100.069 136.028 101L145.778 117.909C146.336 118.84 147.527 119.176 148.458 118.617C149.388 118.058 149.723 116.866 149.165 115.935L139.415 99.0261C138.894 98.095 137.703 97.797 136.735 98.3184Z" fill="#E4EFF1"/>
<path d="M150.392 121.969C149.462 122.528 149.127 123.719 149.685 124.651L155.975 135.563C156.533 136.494 157.724 136.83 158.654 136.271C159.584 135.712 159.919 134.52 159.361 133.589L153.072 122.677C152.514 121.745 151.323 121.448 150.392 121.969Z" fill="#E4EFF1"/>
<path d="M237.288 92.9924H183.773V163.758H237.288V92.9924Z" fill="#CAD9DD"/>
<path d="M190.36 102.043C189.43 102.602 189.095 103.793 189.653 104.725L206.214 133.44C206.772 134.372 207.963 134.707 208.893 134.148C209.824 133.589 210.158 132.398 209.6 131.466L193.04 102.751C192.482 101.819 191.291 101.522 190.36 102.043Z" fill="#E4EFF1"/>
<path d="M196.799 98.3184C195.869 98.8771 195.534 100.069 196.092 101L205.842 117.909C206.4 118.84 207.591 119.176 208.521 118.617C209.452 118.058 209.787 116.866 209.228 115.935L199.478 99.0261C198.92 98.095 197.729 97.797 196.799 98.3184Z" fill="#E4EFF1"/>
<path d="M210.456 121.969C209.526 122.528 209.191 123.719 209.749 124.651L216.038 135.563C216.597 136.494 217.787 136.83 218.718 136.271C219.648 135.712 219.983 134.52 219.425 133.589L213.136 122.677C212.577 121.745 211.387 121.448 210.456 121.969Z" fill="#E4EFF1"/>
<path d="M297.352 92.9924H243.838V163.758H297.352V92.9924Z" fill="#CAD9DD"/>
<path d="M250.388 102.043C249.457 102.602 249.122 103.793 249.68 104.725L266.241 133.44C266.799 134.372 267.99 134.707 268.92 134.148C269.851 133.589 270.186 132.398 269.627 131.466L253.067 102.751C252.546 101.819 251.318 101.522 250.388 102.043Z" fill="#E4EFF1"/>
<path d="M256.826 98.3184C255.896 98.8771 255.561 100.069 256.119 101L265.869 117.909C266.427 118.84 267.618 119.176 268.549 118.617C269.479 118.058 269.814 116.866 269.256 115.935L259.505 99.0261C258.984 98.095 257.794 97.797 256.826 98.3184Z" fill="#E4EFF1"/>
<path d="M270.483 121.969C269.553 122.528 269.218 123.719 269.776 124.651L276.065 135.563C276.624 136.494 277.814 136.83 278.745 136.271C279.675 135.712 280.01 134.52 279.452 133.589L273.163 122.677C272.642 121.745 271.414 121.448 270.483 121.969Z" fill="#E4EFF1"/>
<path d="M146.374 177.129H132.493C129.888 177.129 127.804 175.043 127.804 172.436C127.804 169.829 129.888 167.743 132.493 167.743H146.374C146.969 167.743 147.527 167.296 147.639 166.7L154.896 131.913C155.417 129.381 157.91 127.742 160.441 128.263C162.971 128.785 164.609 131.28 164.088 133.813L156.831 168.6C155.789 173.59 151.398 177.129 146.374 177.129Z" fill="#003444"/>
<path d="M163.38 141.299L154.598 139.995C152.365 139.66 150.244 141.225 149.946 143.459L148.457 153.59C148.122 155.825 149.685 157.947 151.918 158.245L160.701 159.549C162.934 159.884 165.055 158.32 165.353 156.085L166.841 145.955C167.176 143.757 165.613 141.634 163.38 141.299Z" fill="#E5B08C"/>
<path d="M150.207 160.294C131.972 160.294 116.64 154.223 106.89 149.046C94.1252 142.267 85.231 134.111 81.1374 128.748C78.3836 125.135 79.0906 119.995 82.7004 117.239C86.3102 114.483 91.4458 115.19 94.1996 118.803C100.34 126.885 123.264 144.39 151.51 143.869C156.013 143.795 159.771 147.37 159.883 151.914C159.957 156.458 156.385 160.182 151.845 160.294C151.286 160.294 150.765 160.294 150.207 160.294Z" fill="#E5B08C"/>
<path d="M107.671 148.599C105.847 148.599 103.949 148.078 102.312 146.96C90.8126 139.288 84.0768 131.243 81.7323 128.152C78.4947 123.906 79.3134 117.835 83.5558 114.595C87.7982 111.354 93.8642 112.174 97.1018 116.42C98.4787 118.207 103.689 124.613 113.03 130.833C117.458 133.813 118.649 139.809 115.709 144.241C113.848 147.072 110.797 148.599 107.671 148.599Z" fill="#C4403F"/>
<path d="M165.613 170.164H131.6V156.495C131.6 153.218 134.279 150.536 137.554 150.536H143.657L164.571 157.165H165.725C167.995 157.165 169.819 158.99 169.819 161.262V165.918C169.856 168.264 167.958 170.164 165.613 170.164Z" fill="#0AB595"/>
<path d="M126.947 234.337V226.143C128.064 226.143 128.845 225.808 129.589 225.063C134.613 219.886 134.13 199.885 133.683 182.231C133.534 176.347 133.385 170.313 133.385 164.354H141.572C141.572 170.201 141.721 176.235 141.87 182.045C142.428 204.094 142.912 223.163 135.469 230.799C133.199 233.108 130.222 234.337 126.947 234.337Z" fill="#98A6AA"/>
<path d="M110.983 230.761C110.275 230.761 109.531 230.65 108.824 230.463C104.47 229.272 101.865 224.765 103.056 220.407L109.606 196.347L73.5077 182.864C69.2653 181.3 67.1069 176.57 68.7071 172.324C70.2701 168.078 74.9963 165.918 79.2387 167.52L122.37 183.609C126.352 185.099 128.548 189.345 127.431 193.442L118.909 224.728C117.904 228.34 114.592 230.761 110.983 230.761Z" fill="#E5B08C"/>
<path d="M119.505 201.189C118.352 201.189 117.161 201.003 116.044 200.556L72.913 184.466C67.7775 182.529 65.1352 176.794 67.0704 171.654C69.0055 166.514 74.7365 163.87 79.8721 165.806L123.003 181.896C128.139 183.833 130.781 189.568 128.846 194.708C127.32 198.731 123.524 201.189 119.505 201.189Z" fill="#003444"/>
<path d="M70.8653 190.016H62.0828V207.707H70.8653V190.016Z" fill="#98A6AA"/>
<path d="M48.4255 218.322V244.318C48.4255 251.06 53.896 256.535 60.6318 256.535H120.584C127.32 256.535 132.79 251.06 132.79 244.318V228.378C132.79 219.923 126.873 212.66 118.574 210.947L69.7493 200.891C58.7711 198.619 48.4255 207.036 48.4255 218.322Z" fill="#0AB595"/>
<path d="M121.514 264.617H112.025C109.792 264.617 108.006 262.792 108.006 260.594C108.006 258.36 109.829 256.572 112.025 256.572H121.514C123.747 256.572 125.534 258.397 125.534 260.594C125.534 262.792 123.71 264.617 121.514 264.617Z" fill="#004660"/>
<path d="M66.8093 264.617H57.3197C55.0868 264.617 53.3005 262.792 53.3005 260.594C53.3005 258.36 55.124 256.572 57.3197 256.572H66.8093C69.0422 256.572 70.8285 258.397 70.8285 260.594C70.8657 262.792 69.0422 264.617 66.8093 264.617Z" fill="#004660"/>
<path d="M102.908 244.914C109.546 244.914 114.928 239.528 114.928 232.884C114.928 226.24 109.546 220.854 102.908 220.854C96.2691 220.854 90.8875 226.24 90.8875 232.884C90.8875 239.528 96.2691 244.914 102.908 244.914Z" fill="#F5F4EF"/>
<path d="M78.2713 190.015H57.3197C55.0868 190.015 53.3005 188.228 53.3005 185.993V182.455C53.3005 179.959 55.5334 178.06 57.9895 178.469L78.9412 182.008C80.8763 182.343 82.2905 184.019 82.2905 185.993C82.2905 188.19 80.5042 190.015 78.2713 190.015Z" fill="#0AB595"/>
<path d="M103.503 131.951V159.698C103.503 172.92 92.785 183.647 79.574 183.647H71.7218C58.5107 183.647 47.793 172.92 47.793 159.698V131.951C47.793 118.729 58.5107 108.002 71.7218 108.002H79.574C92.785 108.002 103.503 118.729 103.503 131.951Z" fill="#E44E4E"/>
<path d="M85.3422 124.837C82.4767 124.837 79.6112 123.571 77.6389 121.187C74.1407 116.941 74.7734 110.647 79.053 107.183L95.4645 93.7746C99.7069 90.3108 105.996 90.9068 109.457 95.1899C112.955 99.4358 112.323 105.73 108.043 109.194L91.6314 122.602C89.8079 124.129 87.5751 124.837 85.3422 124.837Z" fill="#DDAA87"/>
<path d="M62.6035 63.2339V89.0074C62.6035 105.842 76.2239 119.474 93.0448 119.474C109.866 119.474 123.486 105.842 123.486 89.0074V63.2339C123.486 46.3992 109.866 32.7676 93.0448 32.7676C76.2239 32.7676 62.6035 46.3992 62.6035 63.2339Z" fill="#F6C19D"/>
<path d="M117.048 74.7052C114.48 74.7052 112.396 76.7909 112.396 79.3608V82.6756C112.396 85.2455 114.48 87.3312 117.048 87.3312C119.616 87.3312 121.7 85.2455 121.7 82.6756V79.3608C121.737 76.7909 119.653 74.7052 117.048 74.7052Z" fill="#0E3441"/>
<path d="M89.3237 74.7052C86.7559 74.7052 84.6719 76.7909 84.6719 79.3608V82.6756C84.6719 85.2455 86.7559 87.3312 89.3237 87.3312C91.8914 87.3312 93.9754 85.2455 93.9754 82.6756V79.3608C93.9754 76.7909 91.8914 74.7052 89.3237 74.7052Z" fill="#0E3441"/>
<path d="M81.2481 73.6996C80.6899 73.6996 80.1317 73.4389 79.7967 72.9174C79.2757 72.098 79.499 71.0179 80.2805 70.4965C87.314 65.8409 94.6824 68.0011 97.9573 70.571C98.7016 71.1669 98.8504 72.2843 98.255 73.0292C97.6596 73.7741 96.5432 73.923 95.7989 73.3271C94.1987 72.0608 88.3188 69.3792 82.2529 73.4016C81.9179 73.5878 81.583 73.6996 81.2481 73.6996Z" fill="#0E3441"/>
<path d="M124.491 73.5878C124.268 73.5878 124.007 73.5506 123.784 73.4388C118.462 71.0924 113.29 72.6567 111.913 73.4016C111.057 73.8485 109.978 73.5133 109.531 72.6567C109.084 71.8 109.419 70.7199 110.275 70.273C113.029 68.8205 119.281 67.5914 125.198 70.2358C126.091 70.6454 126.501 71.6511 126.091 72.5449C125.831 73.2154 125.161 73.5878 124.491 73.5878Z" fill="#0E3441"/>
<path d="M133.795 41.7807C133.795 39.8812 133.348 38.0935 132.567 36.492C131.004 38.5032 128.808 39.993 126.24 40.6634C129.106 34.8904 127.654 27.7022 122.37 23.6052C120.621 22.2272 118.648 21.3333 116.602 20.9236C117.197 23.1955 117.197 25.6164 116.565 27.9256C115.411 27.0317 114.108 26.3241 112.657 25.8772C110.759 25.3185 108.861 25.2067 107.038 25.5419C107.633 26.3613 108.08 27.218 108.452 28.1491H67.8882C64.1668 28.1491 61.1152 31.2032 61.1524 34.9649V35.8215H60.6314C56.5379 35.8215 53.2258 39.1736 53.263 43.2705L53.4491 94.594C53.4491 96.5307 55.0493 98.095 56.9844 98.095L63.8691 98.0578L63.7946 80.9996H67.6649V87.6664C67.6649 89.119 68.8558 90.3108 70.3071 90.3108H73.3959C74.8473 90.3108 76.0381 89.119 76.0381 87.6664V62.1909C79.8712 61.3715 83.1461 59.0996 85.2301 55.9338C84.8207 57.6843 84.1136 59.3603 83.0344 60.8501C85.9371 61.3343 89.0259 60.8874 91.817 59.3976C92.9334 58.8016 93.9382 58.0567 94.8314 57.2001C94.7197 58.9506 94.3104 60.6639 93.5661 62.2654C96.506 62.2282 99.4831 61.2226 101.939 59.2486C102.758 58.5782 103.502 57.8705 104.098 57.0884C104.73 57.8333 105.437 58.5782 106.219 59.2113C108.712 61.1853 111.652 62.1537 114.629 62.1909C113.513 59.77 113.104 57.0511 113.476 54.4067C114.741 56.418 116.49 58.094 118.723 59.2858C121.254 60.6266 124.007 61.1108 126.65 60.8129V59.2858L126.612 52.5445C130.855 50.7567 133.795 46.6226 133.795 41.7807Z" fill="#0E3441"/>
<path d="M67.7026 70.0123C67.0327 69.8633 66.3629 69.7888 65.6558 69.7888C59.9992 69.7888 55.4219 74.3699 55.4219 80.0312C55.4219 85.6924 59.9992 90.2735 65.6558 90.2735C66.3629 90.2735 67.0327 90.199 67.7026 90.05V70.0123Z" fill="#F6C19D"/>
<path d="M110.015 99.0633V106.14C110.015 107.928 108.563 109.38 106.777 109.38H105.326C103.539 109.38 102.088 107.928 102.088 106.14V99.0633C102.088 97.2755 103.539 95.823 105.326 95.823H106.777C108.563 95.823 110.015 97.2755 110.015 99.0633Z" fill="#AA2561"/>
<path d="M110.014 99.0633V99.7337H102.125V99.0633C102.125 97.2755 103.576 95.823 105.363 95.823H106.814C108.563 95.823 110.014 97.2755 110.014 99.0633Z" fill="white"/>
<path d="M110.015 105.32V106.14C110.015 107.928 108.563 109.38 106.777 109.38H105.326C103.539 109.38 102.088 107.928 102.088 106.14V103.346C102.907 102.974 103.8 102.788 104.767 102.788C106.926 102.75 108.824 103.756 110.015 105.32Z" fill="#CC6297"/>
<path d="M103.503 159.214V159.698C103.503 172.92 92.785 183.647 79.574 183.647H71.7218C58.5107 183.647 47.793 172.92 47.793 159.698V159.214H103.503Z" fill="#004660"/>
<path d="M136.698 174.782C99.1114 174.782 70.5308 150.536 59.441 135.936C56.501 132.062 57.2453 126.55 61.1156 123.608C64.9859 120.665 70.4936 121.41 73.4335 125.284C82.0672 136.643 106.778 157.948 138.41 157.165C138.484 157.165 138.559 157.165 138.633 157.165C143.396 157.165 147.304 160.964 147.416 165.732C147.527 170.574 143.694 174.633 138.856 174.745C138.149 174.782 137.405 174.782 136.698 174.782Z" fill="#F6C19D"/>
<path d="M88.3565 160.219C86.533 160.219 84.635 159.698 82.9976 158.581C69.4144 149.53 61.525 140.107 58.7711 136.457C55.5335 132.211 56.3522 126.14 60.5946 122.9C64.837 119.66 70.903 120.479 74.1406 124.725C75.8153 126.96 82.2533 134.818 93.7153 142.454C98.1438 145.433 99.3347 151.43 96.3948 155.862C94.534 158.692 91.4825 160.219 88.3565 160.219Z" fill="#C4403F"/>
<path d="M97.9579 243.499C93.4178 243.499 89.7708 239.812 89.7708 235.305V202.828C85.3795 197.911 75.1083 186.403 70.0844 181.673C66.7723 178.581 66.6235 173.367 69.7495 170.089C72.8383 166.775 78.0483 166.626 81.3231 169.754C88.3566 176.384 103.503 193.591 104.135 194.336C105.438 195.826 106.182 197.762 106.182 199.736V235.305C106.145 239.849 102.461 243.499 97.9579 243.499Z" fill="#F6C19D"/>
<path d="M97.9574 209.681C95.2035 209.681 92.4497 208.526 90.4773 206.291C90.4773 206.291 88.7283 204.28 86.1605 201.412C78.2338 192.511 72.0563 185.956 68.8558 182.939C64.8739 179.177 64.6878 172.846 68.4465 168.86C72.2051 164.875 78.5315 164.689 82.5135 168.451C87.128 172.808 95.0919 181.561 100.972 188.153C103.614 191.133 105.437 193.181 105.437 193.181C109.084 197.315 108.675 203.61 104.544 207.223C102.609 208.861 100.265 209.681 97.9574 209.681Z" fill="#004660"/>
<path d="M122.817 242.94V246.33C122.817 247.484 121.887 248.415 120.733 248.415H89.585V233.48H113.365C118.612 233.517 122.817 237.726 122.817 242.94Z" fill="#004660"/>
<path d="M122.817 245.808V246.367C122.817 247.521 121.887 248.453 120.733 248.453H89.585V244.132H98.1815C99.4467 244.132 100.712 244.43 101.903 244.989C103.057 245.548 104.322 245.845 105.624 245.845H122.817V245.808Z" fill="#F5F4EF"/>
<path d="M143.247 185.099H128.808C126.203 185.099 124.119 183.013 124.119 180.406C124.119 177.799 126.203 175.713 128.808 175.713H143.247C143.992 175.713 144.624 175.192 144.773 174.484L152.328 138.245C152.849 135.712 155.342 134.074 157.873 134.595C160.403 135.116 162.041 137.612 161.52 140.145L153.965 176.384C152.849 181.449 148.383 185.099 143.247 185.099Z" fill="#004660"/>
<path d="M116.081 248.453H105.884C104.879 248.453 104.061 249.272 104.061 250.278V252.103C104.061 253.108 104.879 253.928 105.884 253.928H116.081C117.086 253.928 117.904 253.108 117.904 252.103V250.278C117.904 249.272 117.086 248.453 116.081 248.453Z" fill="#004660"/>
<path d="M111.02 252.401C111.698 252.401 112.248 251.85 112.248 251.172C112.248 250.493 111.698 249.943 111.02 249.943C110.342 249.943 109.792 250.493 109.792 251.172C109.792 251.85 110.342 252.401 111.02 252.401Z" fill="#F5F4EF"/>
<path d="M137.479 157.016V174.782H158.729C161.185 174.782 163.195 172.771 163.195 170.313V158.357C163.195 155.899 161.185 153.888 158.729 153.888H140.605C138.856 153.888 137.479 155.303 137.479 157.016Z" fill="#F6C19D"/>
<path d="M371.668 264.617H5.33085C2.31649 264.617 -0.139648 267.075 -0.139648 270.092C-0.139648 273.109 2.31649 275.567 5.33085 275.567H371.668C374.683 275.567 377.139 273.109 377.139 270.092C377.139 267.038 374.683 264.617 371.668 264.617Z" fill="#97A6AA"/>
<path d="M210.531 111.503C208.298 111.503 206.475 109.715 206.438 107.48L206.289 97.4244C206.251 95.1524 208.075 93.2902 210.308 93.2529C212.578 93.2529 214.439 95.0407 214.476 97.2754L214.625 107.331C214.662 109.603 212.838 111.466 210.606 111.503C210.568 111.503 210.568 111.503 210.531 111.503Z" fill="#F6C19D"/>
<path d="M235.279 139.399C233.679 139.399 232.079 138.952 230.664 138.096L204.949 122.118C200.819 119.548 199.553 114.147 202.121 110.013C204.689 105.879 210.085 104.613 214.216 107.182L234.423 119.734L252.36 103.979C256.007 100.776 261.552 101.149 264.753 104.799C267.953 108.449 267.581 113.998 263.934 117.201L241.084 137.239C239.447 138.654 237.363 139.399 235.279 139.399Z" fill="#F6C19D"/>
<path d="M262.52 259.514C257.98 259.514 254.333 255.827 254.333 251.32V167.519C254.333 162.975 258.017 159.325 262.52 159.325C267.023 159.325 270.707 163.013 270.707 167.519V251.32C270.707 255.827 267.023 259.514 262.52 259.514Z" fill="#E5B08C"/>
<path d="M275.805 164.465H249.234V204.057H275.805V164.465Z" fill="#003444"/>
<path d="M271.972 247.261V264.579H231.297V259.03C231.297 252.512 236.581 247.261 243.057 247.261H271.972Z" fill="#2C8DA3"/>
<path d="M253.477 243.909H254.258V248.043H251.095V246.292C251.095 244.989 252.174 243.909 253.477 243.909Z" fill="#2C8DA3"/>
<path d="M243.317 245.957C242.573 245.957 241.977 246.553 241.977 247.298V250.426C241.977 251.171 242.573 251.767 243.317 251.767C244.061 251.767 244.657 251.171 244.657 250.426V247.298C244.62 246.553 244.024 245.957 243.317 245.957Z" fill="#E5E3DC"/>
<path d="M247.857 245.957C247.113 245.957 246.517 246.553 246.517 247.298V250.426C246.517 251.171 247.113 251.767 247.857 251.767C248.601 251.767 249.197 251.171 249.197 250.426V247.298C249.197 246.553 248.601 245.957 247.857 245.957Z" fill="#E5E3DC"/>
<path d="M271.972 260.781H231.297V264.58H271.972V260.781Z" fill="#003444"/>
<path d="M298.245 113.477V153.18C298.245 165.471 288.272 175.452 275.991 175.452H267.767C255.486 175.452 245.512 165.471 245.512 153.18V113.477C245.512 101.186 255.486 91.2045 267.767 91.2045H275.954C288.272 91.2045 298.245 101.186 298.245 113.477Z" fill="#41AFD1"/>
<path d="M270.111 103.123C264.603 103.123 260.175 98.6535 260.175 93.1785V76.1949C260.175 70.6826 264.641 66.2505 270.111 66.2505C275.619 66.2505 280.047 70.7199 280.047 76.1949V93.1785C280.047 98.6908 275.582 103.123 270.111 103.123Z" fill="#DDAA87"/>
<path d="M289.127 31.501V72.3214C294.412 72.3214 298.691 68.0382 298.691 62.7494V31.501H289.127Z" fill="#C17E63"/>
<path d="M292.328 39.1734V64.9468C292.328 81.7815 278.707 95.4132 261.887 95.4132C245.066 95.4132 231.445 81.7815 231.445 64.9468V39.1734C231.445 22.3387 245.066 8.70703 261.887 8.70703C278.67 8.70703 292.328 22.3387 292.328 39.1734Z" fill="#F6C19D"/>
<path d="M236.878 53.4753C239.446 53.4753 241.53 55.5611 241.53 58.131V61.4457C241.53 64.0156 239.446 66.1014 236.878 66.1014C234.31 66.1014 232.226 64.0156 232.226 61.4457V58.1682C232.189 55.5983 234.273 53.4753 236.878 53.4753Z" fill="#0E3441"/>
<path d="M264.603 53.4753C267.171 53.4753 269.255 55.5611 269.255 58.131V61.4457C269.255 64.0156 267.171 66.1014 264.603 66.1014C262.035 66.1014 259.951 64.0156 259.951 61.4457V58.1682C259.951 55.5983 262.035 53.4753 264.603 53.4753Z" fill="#0E3441"/>
<path d="M273.684 49.6391C273.349 49.6391 273.014 49.5274 272.716 49.3412C266.65 45.3187 260.733 48.0004 259.17 49.2667C258.426 49.8626 257.309 49.7509 256.714 48.9687C256.118 48.2238 256.23 47.1065 257.012 46.5106C260.286 43.9407 267.655 41.7805 274.688 46.4361C275.507 46.9575 275.73 48.0749 275.172 48.857C274.8 49.3412 274.242 49.6391 273.684 49.6391Z" fill="#CC5D30"/>
<path d="M230.403 49.5647C229.733 49.5647 229.1 49.155 228.803 48.5219C228.393 47.628 228.803 46.5851 229.696 46.2127C235.613 43.6055 241.865 44.7974 244.619 46.2499C245.475 46.6968 245.81 47.7769 245.363 48.6336C244.917 49.4902 243.837 49.8254 242.981 49.3785C241.604 48.6336 236.432 47.0693 231.11 49.4157C230.887 49.4902 230.663 49.5647 230.403 49.5647Z" fill="#CC5D30"/>
<path d="M271.19 78.0942C271.19 79.6585 270.892 81.1856 270.334 82.6009C269.962 83.532 269.515 84.3886 268.957 85.208C266.724 88.4111 263.04 90.4968 258.835 90.4968C256.713 90.4968 254.741 89.9754 253.029 89.0442C250.461 87.6662 248.415 85.3942 247.335 82.6381C246.777 81.2601 246.479 79.733 246.479 78.1315H271.19V78.0942Z" fill="#AA2561"/>
<path d="M271.19 78.0942C271.19 79.6585 270.892 81.1856 270.334 82.6009H247.335C246.777 81.2228 246.479 79.6958 246.479 78.0942H271.19Z" fill="white"/>
<path d="M268.957 85.1708C266.724 88.3738 263.04 90.4595 258.835 90.4595C256.714 90.4595 254.741 89.9381 253.029 89.007C256.118 86.2881 260.174 84.6493 264.64 84.6493C266.091 84.6121 267.543 84.7983 268.957 85.1708Z" fill="#CC6297"/>
<path d="M281.907 31.501V52.1719C281.907 54.2949 283.656 56.0454 285.778 56.0454H296.346V31.501H281.907Z" fill="#C17E63"/>
<path d="M287.192 45.9891C287.862 45.8401 288.532 45.7656 289.239 45.7656C294.896 45.7656 299.473 50.3468 299.473 56.008C299.473 61.6692 294.896 66.2503 289.239 66.2503C288.532 66.2503 287.862 66.1758 287.192 66.0269V45.9891Z" fill="#F6C19D"/>
<path d="M303.976 29.7876L287.192 34.8156V12.9529H293.928C299.473 12.9529 303.976 17.4595 303.976 23.009V29.7876Z" fill="#EC6523"/>
<path d="M233.12 1.36987H284.439C289.351 1.36987 293.333 5.35508 293.333 10.2714V20.2903H233.12V1.36987Z" fill="#EC6523"/>
<path d="M303.975 29.7876L301.631 45.7657L292.327 29.7876H303.975Z" fill="#EC6523"/>
<path d="M298.542 29.7877L291.36 43.7546L279.712 29.7877H298.542Z" fill="#EC6523"/>
<path d="M246.145 29.9366L224.784 37.7953L228.059 23.903L216.299 16.3423C216.299 16.3423 228.431 12.2453 228.021 12.2453C227.575 12.2453 216.299 -0.492432 216.299 -0.492432L256.341 1.40706L290.392 17.5341L292.365 31.5382L283.806 31.7244L278.521 39.9183L264.64 31.5009L265.905 38.056L246.145 29.9366Z" fill="#EC6523"/>
<path d="M298.245 151.541V153.217C298.245 165.508 288.272 175.49 275.991 175.49H267.767C255.486 175.49 245.512 165.508 245.512 153.217V151.541H298.245Z" fill="#004660"/>
<path d="M280.68 259.514C275.842 259.514 271.897 255.566 271.897 250.724V182.455C271.897 177.613 275.842 173.665 280.68 173.665C285.518 173.665 289.463 177.613 289.463 182.455V250.724C289.463 255.604 285.518 259.514 280.68 259.514Z" fill="#F6C19D"/>
<path d="M294.523 164.465H266.836V205.211H294.523V164.465Z" fill="#004660"/>
<path d="M290.541 246.553V264.617H248.117V258.844C248.117 252.065 253.625 246.553 260.398 246.553H290.541Z" fill="#41AFD1"/>
<path d="M271.265 243.015H272.084V247.298H268.771V245.51C268.771 244.132 269.888 243.015 271.265 243.015Z" fill="#41AFD1"/>
<path d="M260.658 245.175C259.877 245.175 259.281 245.808 259.281 246.553V249.831C259.281 250.613 259.914 251.209 260.658 251.209C261.44 251.209 262.035 250.576 262.035 249.831V246.553C262.035 245.808 261.403 245.175 260.658 245.175Z" fill="#F3F2EC"/>
<path d="M265.422 245.175C264.641 245.175 264.045 245.808 264.045 246.553V249.831C264.045 250.613 264.678 251.209 265.422 251.209C266.204 251.209 266.799 250.576 266.799 249.831V246.553C266.799 245.808 266.166 245.175 265.422 245.175Z" fill="#F3F2EC"/>
<path d="M286.858 180.555L284.327 179.847V181.747L286.858 182.455V180.555Z" fill="#F3F2EC"/>
<path d="M284.327 185.583V205.211H286.858V186.254L284.327 185.583Z" fill="#F3F2EC"/>
<path d="M277.405 179.885L279.936 180.555V178.656L277.405 177.985V179.885Z" fill="#F3F2EC"/>
<path d="M286.858 176.719V164.54H284.327V176.048L286.858 176.719Z" fill="#F3F2EC"/>
<path d="M279.936 174.857V164.54H277.405V174.186L279.936 174.857Z" fill="#F3F2EC"/>
<path d="M277.405 183.684V205.211H279.936V184.391L277.405 183.684Z" fill="#F3F2EC"/>
<path d="M290.504 260.632H248.117V264.542H290.504V260.632Z" fill="#004660"/>
<path d="M291.509 168.003C289.537 168.003 287.527 167.333 285.89 165.955C282.168 162.826 281.685 157.314 284.773 153.59L300.18 135.153L279.415 114.408C275.991 110.981 275.954 105.432 279.377 101.968C282.801 98.5417 288.346 98.5045 291.807 101.931L318.304 128.375C321.541 131.578 321.764 136.755 318.825 140.256L298.245 164.875C296.533 166.961 294.04 168.003 291.509 168.003Z" fill="#F6C19D"/>
<path d="M287.305 173.441C294.539 173.441 300.404 167.571 300.404 160.331C300.404 153.09 294.539 147.221 287.305 147.221C280.07 147.221 274.205 153.09 274.205 160.331C274.205 167.571 280.07 173.441 287.305 173.441Z" fill="#F6C19D"/>
<path d="M295.043 140.433L290.473 145.783L304.588 157.86L309.158 152.51L295.043 140.433Z" fill="#004660"/>
<path d="M200.097 91.6574L195.927 92.7755L197.045 96.9486L201.214 95.8305L200.097 91.6574Z" fill="#004660"/>
<path d="M192.742 91.8003L193.151 93.3274C193.375 94.1468 194.193 94.6309 195.012 94.4075L201.785 92.5825C202.604 92.359 203.088 91.5396 202.864 90.7202L202.455 89.1932C202.232 88.3738 201.413 87.8896 200.594 88.1131L193.821 89.9381C193.002 90.1616 192.519 90.9809 192.742 91.8003Z" fill="#0AB595"/>
<path d="M206.17 93.0797L205.187 95.6145L207.72 96.5982L208.702 94.0634L206.17 93.0797Z" fill="#004660"/>
<path d="M205.507 91.6142L205.134 92.5453C204.948 93.0295 205.172 93.5882 205.693 93.7744L208.595 94.8917C209.079 95.078 209.637 94.8545 209.823 94.3331L210.196 93.4019C210.382 92.9178 210.158 92.3591 209.637 92.1729L206.735 91.0555C206.251 90.8693 205.693 91.13 205.507 91.6142Z" fill="#E44E4E"/>
<path d="M191.441 97.0309L189.739 99.1503L191.857 100.853L193.559 98.734L191.441 97.0309Z" fill="#004660"/>
<path d="M191.291 95.4504L192.072 96.0836C192.481 96.4188 192.556 97.0147 192.221 97.4244L190.249 99.8453C189.914 100.255 189.318 100.329 188.909 99.9943L188.127 99.3611C187.718 99.0259 187.644 98.43 187.979 98.0203L189.951 95.5994C190.286 95.1524 190.881 95.1152 191.291 95.4504Z" fill="#C9C690"/>
<path d="M205.67 120.727C212.856 118.8 217.121 111.407 215.195 104.215C213.27 97.0227 205.883 92.7544 198.697 94.6815C191.51 96.6086 187.246 104.001 189.171 111.194C191.097 118.386 198.483 122.654 205.67 120.727Z" fill="#E44E4E"/>
<path d="M204.697 117.094C209.879 115.704 212.954 110.374 211.565 105.188C210.177 100.003 204.851 96.9254 199.67 98.3148C194.488 99.7042 191.414 105.034 192.802 110.22C194.19 115.406 199.516 118.483 204.697 117.094Z" fill="#F3F2EC"/>
<path d="M202.195 108.896C202.12 108.896 202.046 108.896 201.971 108.858C201.339 108.747 200.929 108.151 201.041 107.48L202.344 100.255C202.455 99.6217 203.051 99.212 203.72 99.3238C204.353 99.4355 204.762 100.031 204.651 100.702L203.348 107.927C203.237 108.486 202.753 108.896 202.195 108.896Z" fill="#0B4861"/>
<path d="M181.727 111.875L187.793 122.23C189.431 125.023 193.003 125.954 195.757 124.315L198.362 122.863C201.153 121.224 202.083 117.648 200.446 114.892L194.38 104.538C192.743 101.745 189.17 100.814 186.416 102.453L183.811 103.905C181.057 105.507 180.09 109.082 181.727 111.875Z" fill="#F6C19D"/>
</g>
<defs>
<clipPath id="clip0_1_1332">
<rect width="377" height="276" fill="white"/>
</clipPath>
</defs>
</svg>
